<svg xmlns="http://www.w3.org/2000/svg" xmlns:xlink="http://www.w3.org/1999/xlink" width="924" height="1199" viewBox="0 0 924 1199">
  <defs>
    <clipPath id="clip-ラーメン枠_スマホ">
      <rect width="924" height="1199"/>
    </clipPath>
  </defs>
  <rect x="30" y="30" width="850" height="1130" fill="#fffdd6" />
  <g id="ラーメン枠_スマホ" clip-path="url(#clip-ラーメン枠_スマホ)">
    <g id="グループ_210" data-name="グループ 210" transform="translate(-54.309 -1030.881)">
      <g id="グループ_207" data-name="グループ 207" transform="translate(966.245 1046.975) rotate(90)">
        <path id="パス_12" data-name="パス 12" d="M5.667,0,0,874.179H10.119L14.976,0Z" fill="#feffb7" stroke="#471805" stroke-linecap="round" stroke-width="1"/>
        <path id="パス_13" data-name="パス 13" d="M4.857,0,0,874.584H10.119L13.357,0Z" transform="translate(10.119)" fill="#feffb7" stroke="#461804" stroke-linecap="round" stroke-width="1"/>
        <path id="パス_14" data-name="パス 14" d="M0,0,3.238,873.369h6.881V0Z" transform="translate(23.476)" fill="#feffb7" stroke="#471804" stroke-linecap="round" stroke-width="1"/>
      </g>
      <g id="グループ_209" data-name="グループ 209" transform="matrix(-0.017, -1, 1, -0.017, 71.14, 2213.264)">
        <path id="パス_12-2" data-name="パス 12" d="M5.648,0,0,874.372H10.11L14.95,0Z" transform="translate(0 0)" fill="#feffb7" stroke="#471805" stroke-linecap="round" stroke-width="1"/>
        <path id="パス_13-2" data-name="パス 13" d="M4.839,0,0,874.777H10.109L13.33,0Z" transform="translate(10.085 0)" fill="#feffb7" stroke="#461804" stroke-linecap="round" stroke-width="1"/>
        <path id="パス_14-2" data-name="パス 14" d="M0,0,3.247,873.562h6.872L10.106,0Z" transform="translate(23.463 0)" fill="#feffb7" stroke="#471804" stroke-linecap="round" stroke-width="1"/>
      </g>
      <g id="グループ_208" data-name="グループ 208" transform="translate(961.792 2195.737) rotate(-180)">
        <path id="パス_12-3" data-name="パス 12" d="M5.5,0,0,1131.8l10.037.01L14.735.009Z" transform="translate(0 0)" fill="#feffb7" stroke="#471805" stroke-linecap="round" stroke-width="1"/>
        <path id="パス_13-3" data-name="パス 13" d="M4.693,0,0,1132.2l10.028.01L13.116.008Z" transform="translate(10.119 0.003)" fill="#feffb7" stroke="#461804" stroke-linecap="round" stroke-width="1"/>
        <path id="パス_14-3" data-name="パス 14" d="M0,0,3.32,1130.988l6.8.006L10,.01Z" transform="translate(23.355 0.005)" fill="#feffb7" stroke="#471804" stroke-linecap="round" stroke-width="1"/>
      </g>
      <g id="グループ_206" data-name="グループ 206" transform="translate(82.203 1068.772)">
        <path id="パス_12-4" data-name="パス 12" d="M1018.5-91.228l-5.667,1137.421h10.119l4.857-1137.421Z" transform="translate(-1012.831 91.228)" fill="#feffb7" stroke="#471805" stroke-linecap="round" stroke-width="1"/>
        <path id="パス_13-4" data-name="パス 13" d="M1027.807-91.228,1022.95,1046.6h10.119l3.238-1137.825Z" transform="translate(-1012.831 91.228)" fill="#feffb7" stroke="#461804" stroke-linecap="round" stroke-width="1"/>
        <path id="パス_14-4" data-name="パス 14" d="M1036.307-91.228l3.238,1136.611h6.881V-91.228Z" transform="translate(-1012.831 91.228)" fill="#feffb7" stroke="#471804" stroke-linecap="round" stroke-width="1"/>
      </g>
      <path id="パス_15" data-name="パス 15" d="M128,5381.681H973.852V6503.865H128Z" transform="translate(-29 -4315)" fill="none" stroke="#f60" stroke-width="30" opacity="0.4"/>
      <g id="グループ_211" data-name="グループ 211" transform="translate(78.309 1047)" opacity="0.58">
        <circle id="楕円形_2" data-name="楕円形 2" cx="5.5" cy="5.5" r="5.5" transform="translate(61.691 4)" fill="#b87041"/>
        <circle id="楕円形_3" data-name="楕円形 3" cx="4.5" cy="4.5" r="4.5" transform="translate(43.691 28)" fill="#b87041"/>
        <circle id="楕円形_4" data-name="楕円形 4" cx="5" cy="5" r="5" transform="translate(20.691 58)" fill="#b87041"/>
        <circle id="楕円形_5" data-name="楕円形 5" cx="8.5" cy="8.5" r="8.5" transform="translate(3.691 120)" fill="#b87041"/>
        <circle id="楕円形_6" data-name="楕円形 6" cx="4" cy="4" r="4" transform="translate(12.691 183)" fill="#b87041"/>
        <circle id="楕円形_7" data-name="楕円形 7" cx="6.5" cy="6.5" r="6.5" transform="translate(3.691 229.693)" fill="#b87041"/>
        <circle id="楕円形_8" data-name="楕円形 8" cx="5" cy="5" r="5" transform="translate(10.691 284.393)" fill="#b87041"/>
        <circle id="楕円形_9" data-name="楕円形 9" cx="5" cy="5" r="5" transform="translate(10.691 339.974)" fill="#b87041"/>
        <circle id="楕円形_10" data-name="楕円形 10" cx="0.5" cy="0.5" r="0.5" transform="translate(52.691 349.438)" fill="#b87041"/>
        <circle id="楕円形_11" data-name="楕円形 11" cx="0.5" cy="0.5" r="0.5" transform="translate(52.691 1139.54)" fill="#b87041"/>
        <circle id="楕円形_12" data-name="楕円形 12" cx="2.5" cy="2.5" r="2.5" transform="translate(114.691 1139.54)" fill="#b87041"/>
        <circle id="楕円形_13" data-name="楕円形 13" cx="3" cy="3" r="3" transform="translate(181.534 1139.54)" fill="#b87041"/>
        <circle id="楕円形_14" data-name="楕円形 14" cx="9" cy="9" r="9" transform="translate(251.471 1134.54)" fill="#b87041"/>
        <circle id="楕円形_15" data-name="楕円形 15" cx="9" cy="9" r="9" transform="translate(348.386 1134.54)" fill="#b87041"/>
        <circle id="楕円形_16" data-name="楕円形 16" cx="4" cy="4" r="4" transform="translate(445.306 1134.54)" fill="#b87041"/>
        <circle id="楕円形_17" data-name="楕円形 17" cx="9" cy="9" r="9" transform="translate(528.229 1134.54)" fill="#b87041"/>
        <circle id="楕円形_18" data-name="楕円形 18" cx="9" cy="9" r="9" transform="translate(606.161 1142.54)" fill="#b87041"/>
        <circle id="楕円形_19" data-name="楕円形 19" cx="8.5" cy="8.5" r="8.5" transform="translate(688.09 1134.54)" fill="#b87041"/>
        <circle id="楕円形_20" data-name="楕円形 20" cx="12" cy="12" r="12" transform="translate(783.936 1123.54)" fill="#b87041"/>
        <circle id="楕円形_21" data-name="楕円形 21" cx="10" cy="10" r="10" transform="translate(860.936 249.03)" fill="#b87041"/>
        <circle id="楕円形_22" data-name="楕円形 22" cx="6" cy="6" r="6" transform="translate(854.936 191)" fill="#b87041"/>
        <circle id="楕円形_23" data-name="楕円形 23" cx="3" cy="3" r="3" transform="translate(848.936 153)" fill="#b87041"/>
        <circle id="楕円形_24" data-name="楕円形 24" cx="3" cy="3" r="3" transform="translate(860.936 74)" fill="#b87041"/>
        <circle id="楕円形_25" data-name="楕円形 25" cx="4" cy="4" r="4" transform="translate(866.936 37)" fill="#b87041"/>
        <circle id="楕円形_26" data-name="楕円形 26" cx="13.5" cy="13.5" r="13.5" transform="translate(800.936 10)" fill="#b87041"/>
        <circle id="楕円形_27" data-name="楕円形 27" cx="20.5" cy="20.5" r="20.5" transform="translate(700.062)" fill="#b87041"/>
        <circle id="楕円形_28" data-name="楕円形 28" cx="9" cy="9" r="9" transform="translate(587.177 10)" fill="#b87041"/>
        <circle id="楕円形_29" data-name="楕円形 29" cx="6.5" cy="6.5" r="6.5" transform="translate(554.209 15)" fill="#b87041"/>
        <circle id="楕円形_30" data-name="楕円形 30" cx="11.5" cy="11.5" r="11.5" transform="translate(466.281 10)" fill="#b87041"/>
        <circle id="楕円形_31" data-name="楕円形 31" cx="12" cy="12" r="12" transform="translate(341.39 4)" fill="#b87041"/>
        <circle id="楕円形_32" data-name="楕円形 32" cx="11" cy="11" r="11" transform="translate(216.501 19)" fill="#b87041"/>
        <circle id="楕円形_33" data-name="楕円形 33" cx="9.5" cy="9.5" r="9.5" transform="translate(152.691 22)" fill="#b87041"/>
        <circle id="楕円形_34" data-name="楕円形 34" cx="6.5" cy="6.5" r="6.5" transform="translate(67.691 28)" fill="#b87041"/>
        <circle id="楕円形_73" data-name="楕円形 73" cx="9.5" cy="9.5" r="9.5" transform="translate(855.245 300.782)" fill="#b87041"/>
        <circle id="楕円形_74" data-name="楕円形 74" cx="1" cy="1" r="1" transform="translate(859.245 362.281)" fill="#b87041"/>
        <circle id="楕円形_75" data-name="楕円形 75" cx="2" cy="2" r="2" transform="translate(855.245 415.985)" fill="#b87041"/>
        <circle id="楕円形_76" data-name="楕円形 76" cx="6" cy="6" r="6" transform="translate(855.245 458.379)" fill="#b87041"/>
        <circle id="楕円形_77" data-name="楕円形 77" cx="3" cy="3" r="3" transform="translate(859.245 498.399)" fill="#b87041"/>
        <circle id="楕円形_78" data-name="楕円形 78" cx="3" cy="3" r="3" transform="translate(861.245 526.197)" fill="#b87041"/>
        <circle id="楕円形_79" data-name="楕円形 79" cx="7" cy="7" r="7" transform="translate(862.245 555.563)" fill="#b87041"/>
        <circle id="楕円形_80" data-name="楕円形 80" cx="4" cy="4" r="4" transform="translate(867.245 615.072)" fill="#b87041"/>
        <circle id="楕円形_81" data-name="楕円形 81" cx="2.5" cy="2.5" r="2.5" transform="translate(864.245 661.522)" fill="#b87041"/>
        <circle id="楕円形_82" data-name="楕円形 82" cx="1.5" cy="1.5" r="1.5" transform="translate(862.245 711.652)" fill="#b87041"/>
        <circle id="楕円形_83" data-name="楕円形 83" cx="5" cy="5" r="5" transform="translate(859.245 756.726)" fill="#b87041"/>
        <circle id="楕円形_84" data-name="楕円形 84" cx="3.5" cy="3.5" r="3.5" transform="translate(862.245 799.492)" fill="#b87041"/>
        <circle id="楕円形_85" data-name="楕円形 85" cx="8.5" cy="8.5" r="8.5" transform="translate(859.245 846.202)" fill="#b87041"/>
        <circle id="楕円形_86" data-name="楕円形 86" cx="3.5" cy="3.5" r="3.5" transform="translate(864.245 901.411)" fill="#b87041"/>
        <circle id="楕円形_87" data-name="楕円形 87" cx="4" cy="4" r="4" transform="translate(856.245 950.421)" fill="#b87041"/>
        <circle id="楕円形_88" data-name="楕円形 88" cx="2.5" cy="2.5" r="2.5" transform="translate(859.245 1003.421)" fill="#b87041"/>
        <circle id="楕円形_89" data-name="楕円形 89" cx="5" cy="5" r="5" transform="translate(858.245 1040.421)" fill="#b87041"/>
        <circle id="楕円形_90" data-name="楕円形 90" cx="4" cy="4" r="4" transform="translate(860.245 1097.421)" fill="#b87041"/>
        <circle id="楕円形_91" data-name="楕円形 91" cx="8.5" cy="8.5" r="8.5" transform="translate(16 1085.421)" fill="#b87041"/>
        <circle id="楕円形_92" data-name="楕円形 92" cx="6.5" cy="6.5" r="6.5" transform="translate(0 1018.421)" fill="#b87041"/>
        <circle id="楕円形_93" data-name="楕円形 93" cx="4.5" cy="4.5" r="4.5" transform="translate(22 1009.421)" fill="#b87041"/>
        <circle id="楕円形_94" data-name="楕円形 94" cx="2.5" cy="2.5" r="2.5" transform="translate(22 919.421)" fill="#b87041"/>
        <circle id="楕円形_95" data-name="楕円形 95" cx="2" cy="2" r="2" transform="translate(18 898.803)" fill="#b87041"/>
        <circle id="楕円形_96" data-name="楕円形 96" cx="7.5" cy="7.5" r="7.5" transform="translate(22 828.716)" fill="#b87041"/>
        <circle id="楕円形_97" data-name="楕円形 97" cx="6" cy="6" r="6" transform="translate(15 728.842)" fill="#b87041"/>
        <circle id="楕円形_98" data-name="楕円形 98" cx="6" cy="6" r="6" transform="translate(13 663.079)" fill="#b87041"/>
        <circle id="楕円形_99" data-name="楕円形 99" cx="3.5" cy="3.5" r="3.5" transform="translate(30 565.078)" fill="#b87041"/>
        <circle id="楕円形_100" data-name="楕円形 100" cx="5" cy="5" r="5" transform="translate(11 478.818)" fill="#b87041"/>
        <circle id="楕円形_101" data-name="楕円形 101" cx="1.5" cy="1.5" r="1.5" transform="translate(24 392.842)" fill="#b87041"/>
        <circle id="楕円形_102" data-name="楕円形 102" cx="7" cy="7" r="7" transform="translate(16 433.315)" fill="#b87041"/>
      </g>
      <g id="グループ_212" data-name="グループ 212" transform="translate(63.745 1030.881)">
        <rect id="長方形_84" data-name="長方形 84" width="33" height="68" transform="translate(889.674 1119) rotate(43)" fill="#053012"/>
        <rect id="長方形_85" data-name="長方形 85" width="33" height="68" transform="translate(46.376 0) rotate(43)" fill="#053012"/>
      </g>
      <g id="グループ_262" data-name="グループ 262" transform="translate(47.554 1038.211)">
        <g id="グループ_213" data-name="グループ 213" transform="translate(0 1101.21)">
          <path id="パス_18" data-name="パス 18" d="M13.285,8.671,26.109,7.326,40.2,0l7.785,13.267,16.591,6.271L53.318,29.9l9.391,23.605H47.988L40.2,65.2l-8.966-11.7L11.552,58.611l1.733-14.043L0,34.8,12.246,19.537Z" transform="translate(41.912 0) rotate(40)" fill="#fff"/>
          <path id="パス_19" data-name="パス 19" d="M13.584,10.776s-10.5,8.241-12.415,5.55S-1.021.288,5.935.011s14.992,4.578,17.4,10.765c2.131,5.469-8.213,8.532-10.863,11.653" transform="translate(44.371 31.137) rotate(40)" fill="none" stroke="#f934f3" stroke-width="4"/>
        </g>
        <g id="グループ_214" data-name="グループ 214" transform="translate(857.868)">
          <path id="パス_16" data-name="パス 16" d="M974,5377.881l12.823-1.345,14.094-7.326,7.785,13.267,16.591,6.271-11.261,10.363,9.391,23.605H1008.7l-7.785,11.7-8.966-11.7-19.684,5.105L974,5413.778l-13.285-9.768,12.246-15.264Z" transform="translate(-960.712 -5369.21)" fill="#fff"/>
          <path id="パス_17" data-name="パス 17" d="M981.116,5388.616s-10.5,8.241-12.415,5.55-2.189-16.039,4.767-16.315,14.992,4.578,17.4,10.765c2.131,5.469-8.213,8.532-10.863,11.653" transform="translate(-945.635 -5355.568)" fill="none" stroke="#f934f3" stroke-width="4"/>
        </g>
      </g>
    </g>
  </g>
</svg>
