<svg xmlns="http://www.w3.org/2000/svg" xmlns:xlink="http://www.w3.org/1999/xlink" width="924" height="1200" viewBox="0 0 924 1200">
  <defs>
    <clipPath id="clip-うどん枠_スマホ">
      <rect width="924" height="1200"/>
    </clipPath>
  </defs>
  <rect x="30" y="30" width="860" height="1130" fill="#fffdd6" />
  <g id="うどん枠_スマホ" clip-path="url(#clip-うどん枠_スマホ)">
    <g id="グループ_219" data-name="グループ 219" transform="translate(-948.123 -1038.124)">
      <g id="グループ_215" data-name="グループ 215" transform="translate(1861.416 1053.924) rotate(90)">
        <path id="パス_20" data-name="パス 20" d="M0,0V868.129H8.622L10.059,0Z" transform="translate(0)" fill="#eeead9" stroke="#d6dbdf" stroke-width="1"/>
        <path id="パス_21" data-name="パス 21" d="M1.437,0,0,868.129H9.1L11.256,0Z" transform="translate(8.622)" fill="#eeead9" stroke="#d6dbdf" stroke-width="1"/>
        <path id="パス_22" data-name="パス 22" d="M1.916,0,0,868.129H11.735V0Z" transform="translate(17.962)" fill="#eeead9" stroke="#d6dbdf" stroke-width="1"/>
      </g>
      <g id="グループ_216" data-name="グループ 216" transform="translate(977.975 2225.294) rotate(-90)">
        <path id="パス_20-2" data-name="パス 20" d="M0,0V868.128H8.622L10.059,0Z" transform="translate(0)" fill="#eeead9" stroke="#d6dbdf" stroke-width="1"/>
        <path id="パス_21-2" data-name="パス 21" d="M1.437,0,0,868.128H9.1L11.256,0Z" transform="translate(8.622)" fill="#eeead9" stroke="#d6dbdf" stroke-width="1"/>
        <path id="パス_22-2" data-name="パス 22" d="M1.916,0,0,868.128H11.735V0Z" transform="translate(17.962)" fill="#eeead9" stroke="#d6dbdf" stroke-width="1"/>
      </g>
      <g id="グループ_217" data-name="グループ 217" transform="translate(1831.718 -1168.38)">
        <path id="パス_20-3" data-name="パス 20" d="M0,0V1165.489H8.622L10.059,0Z" transform="translate(0 2223.759)" fill="#eeead9" stroke="#d6dbdf" stroke-width="1"/>
        <path id="パス_21-3" data-name="パス 21" d="M1.437,0,0,1165.489H9.1L11.256,0Z" transform="translate(8.622 2223.759)" fill="#eeead9" stroke="#d6dbdf" stroke-width="1"/>
        <path id="パス_22-3" data-name="パス 22" d="M1.916,0,0,1165.489H11.735V0Z" transform="translate(17.962 2223.759)" fill="#eeead9" stroke="#d6dbdf" stroke-width="1"/>
      </g>
      <g id="グループ_218" data-name="グループ 218" transform="translate(970.975 -1165.115)">
        <path id="パス_20-4" data-name="パス 20" d="M0,0V1165.489H8.622L10.059,0Z" transform="translate(0 2219.039)" fill="#eeead9" stroke="#d6dbdf" stroke-width="1"/>
        <path id="パス_21-4" data-name="パス 21" d="M1.437,0,0,1165.489H9.1L11.256,0Z" transform="translate(8.622 2219.039)" fill="#eeead9" stroke="#d6dbdf" stroke-width="1"/>
        <path id="パス_22-4" data-name="パス 22" d="M1.916,0,0,1165.489H11.735V0Z" transform="translate(17.962 2219.039)" fill="#eeead9" stroke="#d6dbdf" stroke-width="1"/>
      </g>
      <g id="グループ_228" data-name="グループ 228" transform="translate(948.123 1038.124)">
        <g id="グループ_223" data-name="グループ 223" transform="matrix(0.799, 0.602, -0.602, 0.799, 880.149, 8.322)">
          <path id="パス_26" data-name="パス 26" d="M61.759,27.086S63.086.168,31.948,0,0,27.086,0,27.086" transform="translate(0.323)" fill="#ff9fdc"/>
          <path id="パス_25" data-name="パス 25" d="M0,20.832H49.47S51.014,0,25.1,0,0,20.832,0,20.832Z" transform="translate(6.725 6.253)" fill="#fff"/>
          <path id="パス_27" data-name="パス 27" d="M0,0H6.208" transform="translate(56.212 27.085)" fill="none"/>
          <path id="パス_28" data-name="パス 28" d="M10.261,0H0" transform="translate(0 27.085)" fill="none"/>
        </g>
        <g id="グループ_224" data-name="グループ 224" transform="matrix(-0.588, -0.809, 0.809, -0.588, 36.69, 1200)">
          <path id="パス_26-2" data-name="パス 26" d="M61.759,27.086S63.086.168,31.948,0,0,27.086,0,27.086" transform="translate(0.323 0)" fill="#ff9fdc"/>
          <path id="パス_25-2" data-name="パス 25" d="M0,20.832H49.47S51.014,0,25.1,0,0,20.832,0,20.832Z" transform="translate(6.725 6.253)" fill="#fff"/>
          <path id="パス_27-2" data-name="パス 27" d="M0,0H6.208" transform="translate(56.212 27.085)" fill="none"/>
          <path id="パス_28-2" data-name="パス 28" d="M10.261,0H0" transform="translate(0 27.085)" fill="none"/>
        </g>
        <g id="グループ_226" data-name="グループ 226" transform="translate(0.83 0)">
          <rect id="長方形_86" data-name="長方形 86" width="53.247" height="38.619" rx="10" transform="matrix(0.848, -0.53, 0.53, 0.848, 0, 28.217)" fill="#efa65e"/>
          <g id="グループ_225" data-name="グループ 225" transform="translate(13.567 15.8)">
            <path id="パス_29" data-name="パス 29" d="M991.52,5387.745a8.258,8.258,0,0,1,2.817-3.811,12.077,12.077,0,0,1,5.137-1.491" transform="translate(-991.52 -5368.924)" fill="none" stroke="#000" stroke-width="1"/>
            <path id="パス_30" data-name="パス 30" d="M991.52,5387.745a8.258,8.258,0,0,1,2.817-3.811,12.077,12.077,0,0,1,5.137-1.491" transform="translate(-983.567 -5359.924)" fill="none" stroke="#000" stroke-width="1"/>
            <path id="パス_31" data-name="パス 31" d="M991.52,5387.745a8.258,8.258,0,0,1,2.817-3.811,12.077,12.077,0,0,1,5.137-1.491" transform="translate(-966.567 -5363.622)" fill="none" stroke="#000" stroke-width="1"/>
            <path id="パス_32" data-name="パス 32" d="M991.52,5387.745a8.258,8.258,0,0,1,2.817-3.811,12.077,12.077,0,0,1,5.137-1.491" transform="translate(-970.543 -5371.575)" fill="none" stroke="#000" stroke-width="1"/>
            <path id="パス_33" data-name="パス 33" d="M991.52,5387.745a8.258,8.258,0,0,1,2.817-3.811,12.077,12.077,0,0,1,5.137-1.491" transform="translate(-983.567 -5379.622)" fill="none" stroke="#000" stroke-width="1"/>
            <path id="パス_34" data-name="パス 34" d="M991.52,5387.745a8.258,8.258,0,0,1,2.817-3.811,12.077,12.077,0,0,1,5.137-1.491" transform="translate(-964.567 -5382.442)" fill="none" stroke="#000" stroke-width="1"/>
          </g>
        </g>
        <g id="グループ_227" data-name="グループ 227" transform="translate(859.613 1138.191)">
          <rect id="長方形_86-2" data-name="長方形 86" width="53.247" height="38.619" rx="10" transform="matrix(0.848, -0.53, 0.53, 0.848, 0, 28.217)" fill="#efa65e"/>
          <g id="グループ_225-2" data-name="グループ 225" transform="translate(13.567 15.8)">
            <path id="パス_29-2" data-name="パス 29" d="M991.52,5387.745a8.258,8.258,0,0,1,2.817-3.811,12.077,12.077,0,0,1,5.137-1.491" transform="translate(-991.52 -5368.924)" fill="none" stroke="#000" stroke-width="1"/>
            <path id="パス_30-2" data-name="パス 30" d="M991.52,5387.745a8.258,8.258,0,0,1,2.817-3.811,12.077,12.077,0,0,1,5.137-1.491" transform="translate(-983.567 -5359.924)" fill="none" stroke="#000" stroke-width="1"/>
            <path id="パス_31-2" data-name="パス 31" d="M991.52,5387.745a8.258,8.258,0,0,1,2.817-3.811,12.077,12.077,0,0,1,5.137-1.491" transform="translate(-966.567 -5363.622)" fill="none" stroke="#000" stroke-width="1"/>
            <path id="パス_32-2" data-name="パス 32" d="M991.52,5387.745a8.258,8.258,0,0,1,2.817-3.811,12.077,12.077,0,0,1,5.137-1.491" transform="translate(-970.543 -5371.575)" fill="none" stroke="#000" stroke-width="1"/>
            <path id="パス_33-2" data-name="パス 33" d="M991.52,5387.745a8.258,8.258,0,0,1,2.817-3.811,12.077,12.077,0,0,1,5.137-1.491" transform="translate(-983.567 -5379.622)" fill="none" stroke="#000" stroke-width="1"/>
            <path id="パス_34-2" data-name="パス 34" d="M991.52,5387.745a8.258,8.258,0,0,1,2.817-3.811,12.077,12.077,0,0,1,5.137-1.491" transform="translate(-964.567 -5382.442)" fill="none" stroke="#000" stroke-width="1"/>
          </g>
        </g>
      </g>
    </g>
  </g>
</svg>
