<svg xmlns="http://www.w3.org/2000/svg" xmlns:xlink="http://www.w3.org/1999/xlink" width="924" height="1205" viewBox="0 0 924 1205">
  <defs>
    <clipPath id="clip-やきそば枠_スマホ">
      <rect width="924" height="1205"/>
    </clipPath>
  </defs>
  <rect x="30" y="30" width="880" height="1130" fill="#fffdd6" />
  <g id="やきそば枠_スマホ" clip-path="url(#clip-やきそば枠_スマホ)">
    <g id="グループ_247" data-name="グループ 247" transform="translate(-946.815 -1423.562)">
      <g id="グループ_237" data-name="グループ 237" transform="translate(1844.287 1433.562) rotate(90)">
        <path id="パス_20" data-name="パス 20" d="M0,0V868.075H8.622L10.059,0Z" fill="#a7804e" stroke="#ce844c" stroke-width="1"/>
        <path id="パス_21" data-name="パス 21" d="M1.437,0,0,868.075H9.1L11.256,0Z" transform="translate(8.622)" fill="#a7804e" stroke="#ce844c" stroke-width="1"/>
        <path id="パス_22" data-name="パス 22" d="M1.916,0,0,868.075H11.735V0Z" transform="translate(17.962)" fill="#a7804e" stroke="#ce844c" stroke-width="1"/>
      </g>
      <g id="グループ_238" data-name="グループ 238" transform="translate(992.887 2596.178) rotate(-90)">
        <path id="パス_20-2" data-name="パス 20" d="M0,0V868.074H8.622L10.059,0Z" transform="translate(0)" fill="#a7804e" stroke="#ce844c" stroke-width="1"/>
        <path id="パス_21-2" data-name="パス 21" d="M1.437,0,0,868.074H9.1L11.256,0Z" transform="translate(8.622)" fill="#a7804e" stroke="#ce844c" stroke-width="1"/>
        <path id="パス_22-2" data-name="パス 22" d="M1.916,0,0,868.074H11.735V0Z" transform="translate(17.962)" fill="#a7804e" stroke="#ce844c" stroke-width="1"/>
      </g>
      <g id="グループ_239" data-name="グループ 239" transform="translate(1838.118 -1547.651)">
        <path id="パス_20-3" data-name="パス 20" d="M0,0V1156.735H8.622L10.059,0Z" transform="translate(0 2986.845)" fill="#a7804e" stroke="#ce844c" stroke-width="1"/>
        <path id="パス_21-3" data-name="パス 21" d="M1.437,0,0,1156.735H9.1L11.256,0Z" transform="translate(8.622 2986.845)" fill="#a7804e" stroke="#ce844c" stroke-width="1"/>
        <path id="パス_22-3" data-name="パス 22" d="M1.916,0,0,1156.735H11.735V0Z" transform="translate(17.962 2986.845)" fill="#a7804e" stroke="#ce844c" stroke-width="1"/>
      </g>
      <g id="グループ_240" data-name="グループ 240" transform="translate(961.363 -1548.615)">
        <path id="パス_20-4" data-name="パス 20" d="M0,0V1156.735H8.622L10.059,0Z" transform="translate(0 2982.177)" fill="#a7804e" stroke="#ce844c" stroke-width="1"/>
        <path id="パス_21-4" data-name="パス 21" d="M1.437,0,0,1156.735H9.1L11.256,0Z" transform="translate(8.622 2982.177)" fill="#a7804e" stroke="#ce844c" stroke-width="1"/>
        <path id="パス_22-4" data-name="パス 22" d="M1.916,0,0,1156.735H11.735V0Z" transform="translate(17.962 2982.177)" fill="#a7804e" stroke="#ce844c" stroke-width="1"/>
      </g>
      <g id="グループ_246" data-name="グループ 246" transform="translate(943.815 1423.562)">
        <g id="グループ_241" data-name="グループ 241" transform="translate(14.403 10)">
          <g id="長方形_87" data-name="長方形 87" transform="translate(6.498 2.578) rotate(29)" fill="#f95ba0" stroke="#fc20d7" stroke-width="1">
            <rect width="32.993" height="6.599" stroke="none"/>
            <rect x="0.5" y="0.5" width="31.993" height="5.599" fill="none"/>
          </g>
          <g id="長方形_88" data-name="長方形 88" transform="matrix(-0.602, 0.799, -0.799, -0.602, 30.682, 3.971)" fill="#f95ba0" stroke="#fc20d7" stroke-width="1">
            <rect width="32.993" height="6.599" stroke="none"/>
            <rect x="0.5" y="0.5" width="31.993" height="5.599" fill="none"/>
          </g>
          <g id="長方形_89" data-name="長方形 89" transform="translate(3.199 11.376) rotate(29)" fill="#f95ba0" stroke="#fc20d7" stroke-width="1">
            <rect width="32.993" height="6.599" stroke="none"/>
            <rect x="0.5" y="0.5" width="31.993" height="5.599" fill="none"/>
          </g>
        </g>
        <g id="グループ_242" data-name="グループ 242" transform="matrix(0.819, 0.574, -0.574, 0.819, 898.564, 1128.735)">
          <g id="長方形_87-2" data-name="長方形 87" transform="translate(7.054 2.798) rotate(29)" fill="#f95ba0" stroke="#fc20d7" stroke-width="1">
            <rect width="35.813" height="7.163" stroke="none"/>
            <rect x="0.5" y="0.5" width="34.813" height="6.163" fill="none"/>
          </g>
          <g id="長方形_88-2" data-name="長方形 88" transform="matrix(-0.602, 0.799, -0.799, -0.602, 33.304, 4.311)" fill="#f95ba0" stroke="#fc20d7" stroke-width="1">
            <rect width="35.813" height="7.163" stroke="none"/>
            <rect x="0.5" y="0.5" width="34.813" height="6.163" fill="none"/>
          </g>
          <g id="長方形_89-2" data-name="長方形 89" transform="translate(3.472 12.348) rotate(29)" fill="#f95ba0" stroke="#fc20d7" stroke-width="1">
            <rect width="35.813" height="7.163" stroke="none"/>
            <rect x="0.5" y="0.5" width="34.813" height="6.163" fill="none"/>
          </g>
        </g>
        <g id="グループ_243" data-name="グループ 243" transform="translate(838.781 0)">
          <path id="パス_38" data-name="パス 38" d="M1822.583,5770.237c-3.173-9.28-6.407-4.371-2.635-12.933s24.01-7.724,30.416-5.269,8.981,4.97,10.3,8.861-2.036,9.52-5.269,22.752-2.934,3.952-12.454,5.748-2.335-8.2-8.622-13.891S1825.757,5779.518,1822.583,5770.237Z" transform="translate(-1775.815 -5738.562)" fill="#6cfe62" stroke="#67a551" stroke-width="1"/>
          <path id="パス_39" data-name="パス 39" d="M4.335,19.875C1.162,10.595-2.071,15.5,1.7,6.942S25.71-.782,32.117,1.673s8.981,4.97,10.3,8.861-2.036,9.52-5.269,22.752-2.934,3.952-12.454,5.748-2.335-8.2-8.622-13.891S7.509,29.155,4.335,19.875Z" transform="translate(58.866 28.666) rotate(135)" fill="#6cfe62" stroke="#67a551" stroke-width="1"/>
          <path id="パス_40" data-name="パス 40" d="M1819.82,5792.547c-5.573,12.343,1.244,19.713,8.106,18.607s23.858,26.805,21.186,14.922,5.987.092,11.791-2.026.092-9.58,4.974-12.9-3.593-12.989-10.685-22.108-9.488-15.383-17.686-14.37S1825.393,5780.2,1819.82,5792.547Z" transform="translate(-1788.336 -5746.562)" fill="#6cfe62" stroke="#67a551" stroke-width="1"/>
        </g>
        <g id="グループ_244" data-name="グループ 244" transform="translate(0 1117.534)">
          <path id="パス_38-2" data-name="パス 38" d="M1822.583,5770.237c-3.173-9.28-6.407-4.371-2.635-12.933s24.01-7.724,30.416-5.269,8.981,4.97,10.3,8.861-2.036,9.52-5.269,22.752-2.934,3.952-12.454,5.748-2.335-8.2-8.622-13.891S1825.757,5779.518,1822.583,5770.237Z" transform="translate(-1775.815 -5738.562)" fill="#6cfe62" stroke="#67a551" stroke-width="1"/>
          <path id="パス_39-2" data-name="パス 39" d="M4.335,19.875C1.162,10.595-2.071,15.5,1.7,6.942S25.71-.782,32.117,1.673s8.981,4.97,10.3,8.861-2.036,9.52-5.269,22.752-2.934,3.952-12.454,5.748-2.335-8.2-8.622-13.891S7.509,29.155,4.335,19.875Z" transform="translate(58.866 28.666) rotate(135)" fill="#6cfe62" stroke="#67a551" stroke-width="1"/>
          <path id="パス_40-2" data-name="パス 40" d="M1819.82,5792.547c-5.573,12.343,1.244,19.713,8.106,18.607s23.858,26.805,21.186,14.922,5.987.092,11.791-2.026.092-9.58,4.974-12.9-3.593-12.989-10.685-22.108-9.488-15.383-17.686-14.37S1825.393,5780.2,1819.82,5792.547Z" transform="translate(-1788.336 -5746.562)" fill="#6cfe62" stroke="#67a551" stroke-width="1"/>
        </g>
        <g id="グループ_245" data-name="グループ 245" transform="translate(16.185 15.438)">
          <g id="長方形_90" data-name="長方形 90" transform="translate(59 8)" fill="#007104" stroke="#88b282" stroke-width="1">
            <rect width="1" height="1" stroke="none"/>
            <rect x="0.5" y="0.5" fill="none"/>
          </g>
          <g id="長方形_91" data-name="長方形 91" transform="translate(99 11)" fill="#007104" stroke="#88b282" stroke-width="1">
            <rect width="1" height="1" stroke="none"/>
            <rect x="0.5" y="0.5" fill="none"/>
          </g>
          <g id="長方形_92" data-name="長方形 92" transform="translate(161 0)" fill="#007104" stroke="#88b282" stroke-width="1">
            <rect width="8" height="8" stroke="none"/>
            <rect x="0.5" y="0.5" width="7" height="7" fill="none"/>
          </g>
          <g id="長方形_93" data-name="長方形 93" transform="translate(225.914 11)" fill="#007104" stroke="#88b282" stroke-width="1">
            <rect width="1" height="1" stroke="none"/>
            <rect x="0.5" y="0.5" fill="none"/>
          </g>
          <g id="長方形_94" data-name="長方形 94" transform="translate(288.419 16)" fill="#007104" stroke="#88b282" stroke-width="1">
            <rect width="4" height="4" stroke="none"/>
            <rect x="0.5" y="0.5" width="3" height="3" fill="none"/>
          </g>
          <g id="長方形_95" data-name="長方形 95" transform="translate(391.553 4)" fill="#007104" stroke="#88b282" stroke-width="1">
            <rect width="7" height="7" stroke="none"/>
            <rect x="0.5" y="0.5" width="6" height="6" fill="none"/>
          </g>
          <g id="長方形_96" data-name="長方形 96" transform="translate(497.704 8)" fill="#007104" stroke="#88b282" stroke-width="1">
            <rect width="4" height="4" stroke="none"/>
            <rect x="0.5" y="0.5" width="3" height="3" fill="none"/>
          </g>
          <g id="長方形_97" data-name="長方形 97" transform="translate(553.93 8)" fill="#007104" stroke="#88b282" stroke-width="1">
            <rect width="4" height="4" stroke="none"/>
            <rect x="0.5" y="0.5" width="3" height="3" fill="none"/>
          </g>
          <g id="長方形_98" data-name="長方形 98" transform="translate(629.247 8)" fill="#007104" stroke="#88b282" stroke-width="1">
            <rect width="16" height="16" stroke="none"/>
            <rect x="0.5" y="0.5" width="15" height="15" fill="none"/>
          </g>
          <g id="長方形_99" data-name="長方形 99" transform="translate(723.782 8)" fill="#007104" stroke="#88b282" stroke-width="1">
            <rect width="8" height="8" stroke="none"/>
            <rect x="0.5" y="0.5" width="7" height="7" fill="none"/>
          </g>
          <g id="長方形_100" data-name="長方形 100" transform="translate(793.781 8)" fill="#007104" stroke="#88b282" stroke-width="1">
            <rect width="4" height="4" stroke="none"/>
            <rect x="0.5" y="0.5" width="3" height="3" fill="none"/>
          </g>
          <g id="長方形_101" data-name="長方形 101" transform="translate(887.781 276.25)" fill="#007104" stroke="#88b282" stroke-width="1">
            <rect width="9" height="9" stroke="none"/>
            <rect x="0.5" y="0.5" width="8" height="8" fill="none"/>
          </g>
          <g id="長方形_102" data-name="長方形 102" transform="translate(896.781 429.917)" fill="#007104" stroke="#88b282" stroke-width="1">
            <rect width="11" height="11" stroke="none"/>
            <rect x="0.5" y="0.5" width="10" height="10" fill="none"/>
          </g>
          <g id="長方形_103" data-name="長方形 103" transform="translate(892.781 583.765)" fill="#007104" stroke="#88b282" stroke-width="1">
            <rect width="15" height="15" stroke="none"/>
            <rect x="0.5" y="0.5" width="14" height="14" fill="none"/>
          </g>
          <g id="長方形_104" data-name="長方形 104" transform="translate(887.781 732.529)" fill="#007104" stroke="#88b282" stroke-width="1">
            <rect width="9" height="9" stroke="none"/>
            <rect x="0.5" y="0.5" width="8" height="8" fill="none"/>
          </g>
          <g id="長方形_105" data-name="長方形 105" transform="translate(881.781 894.103)" fill="#007104" stroke="#88b282" stroke-width="1">
            <rect width="11" height="11" stroke="none"/>
            <rect x="0.5" y="0.5" width="10" height="10" fill="none"/>
          </g>
          <g id="長方形_106" data-name="長方形 106" transform="translate(809.781 1143.561)" fill="#007104" stroke="#88b282" stroke-width="1">
            <rect width="13" height="13" stroke="none"/>
            <rect x="0.5" y="0.5" width="12" height="12" fill="none"/>
          </g>
          <g id="長方形_107" data-name="長方形 107" transform="translate(669.659 1147.561)" fill="#007104" stroke="#88b282" stroke-width="1">
            <rect width="9" height="9" stroke="none"/>
            <rect x="0.5" y="0.5" width="8" height="8" fill="none"/>
          </g>
          <g id="長方形_108" data-name="長方形 108" transform="translate(520.924 1133.561)" fill="#007104" stroke="#88b282" stroke-width="1">
            <rect width="17" height="17" stroke="none"/>
            <rect x="0.5" y="0.5" width="16" height="16" fill="none"/>
          </g>
          <g id="長方形_109" data-name="長方形 109" transform="translate(429.222 1127.561)" fill="#007104" stroke="#88b282" stroke-width="1">
            <rect width="16" height="16" stroke="none"/>
            <rect x="0.5" y="0.5" width="15" height="15" fill="none"/>
          </g>
          <g id="長方形_110" data-name="長方形 110" transform="translate(340.526 1143.561)" fill="#007104" stroke="#88b282" stroke-width="1">
            <rect width="7" height="7" stroke="none"/>
            <rect x="0.5" y="0.5" width="6" height="6" fill="none"/>
          </g>
          <g id="長方形_111" data-name="長方形 111" transform="translate(220.841 1143.561)" fill="#007104" stroke="#88b282" stroke-width="1">
            <rect width="14" height="14" stroke="none"/>
            <rect x="0.5" y="0.5" width="13" height="13" fill="none"/>
          </g>
          <g id="長方形_112" data-name="長方形 112" transform="translate(139 1138.561)" fill="#007104" stroke="#88b282" stroke-width="1">
            <rect width="22" height="22" stroke="none"/>
            <rect x="0.5" y="0.5" width="21" height="21" fill="none"/>
          </g>
          <g id="長方形_113" data-name="長方形 113" transform="translate(78 1135.561)" fill="#007104" stroke="#88b282" stroke-width="1">
            <rect width="12" height="12" stroke="none"/>
            <rect x="0.5" y="0.5" width="11" height="11" fill="none"/>
          </g>
          <g id="長方形_114" data-name="長方形 114" transform="translate(16 864.421)" fill="#007104" stroke="#88b282" stroke-width="1">
            <rect width="8" height="8" stroke="none"/>
            <rect x="0.5" y="0.5" width="7" height="7" fill="none"/>
          </g>
          <g id="長方形_115" data-name="長方形 115" transform="translate(11 760.465)" fill="#007104" stroke="#88b282" stroke-width="1">
            <rect width="9" height="9" stroke="none"/>
            <rect x="0.5" y="0.5" width="8" height="8" fill="none"/>
          </g>
          <g id="長方形_116" data-name="長方形 116" transform="translate(15 527.272)" fill="#007104" stroke="#88b282" stroke-width="1">
            <rect width="15" height="15" stroke="none"/>
            <rect x="0.5" y="0.5" width="14" height="14" fill="none"/>
          </g>
          <g id="長方形_117" data-name="長方形 117" transform="translate(0 373.841)" fill="#007104" stroke="#88b282" stroke-width="1">
            <rect width="11" height="11" stroke="none"/>
            <rect x="0.5" y="0.5" width="10" height="10" fill="none"/>
          </g>
          <g id="長方形_118" data-name="長方形 118" transform="translate(6 274.253)" fill="#007104" stroke="#88b282" stroke-width="1">
            <rect width="5" height="5" stroke="none"/>
            <rect x="0.5" y="0.5" width="4" height="4" fill="none"/>
          </g>
          <g id="長方形_119" data-name="長方形 119" transform="translate(23 47)" fill="#007104" stroke="#88b282" stroke-width="1">
            <rect width="7" height="7" stroke="none"/>
            <rect x="0.5" y="0.5" width="6" height="6" fill="none"/>
          </g>
          <g id="長方形_120" data-name="長方形 120" transform="translate(10.815 101.562)" fill="#007104" stroke="#88b282" stroke-width="1">
            <rect width="5" height="5" stroke="none"/>
            <rect x="0.5" y="0.5" width="4" height="4" fill="none"/>
          </g>
          <g id="長方形_121" data-name="長方形 121" transform="translate(7.815 150.562)" fill="#007104" stroke="#88b282" stroke-width="1">
            <rect width="8" height="8" stroke="none"/>
            <rect x="0.5" y="0.5" width="7" height="7" fill="none"/>
          </g>
          <g id="長方形_122" data-name="長方形 122" transform="translate(15.815 225.562)" fill="#007104" stroke="#88b282" stroke-width="1">
            <rect width="8" height="8" stroke="none"/>
            <rect x="0.5" y="0.5" width="7" height="7" fill="none"/>
          </g>
          <g id="長方形_123" data-name="長方形 123" transform="translate(13.815 313.562)" fill="#007104" stroke="#88b282" stroke-width="1">
            <rect width="20" height="20" stroke="none"/>
            <rect x="0.5" y="0.5" width="19" height="19" fill="none"/>
          </g>
          <g id="長方形_124" data-name="長方形 124" transform="translate(11.815 451.562)" fill="#007104" stroke="#88b282" stroke-width="1">
            <rect width="8" height="8" stroke="none"/>
            <rect x="0.5" y="0.5" width="7" height="7" fill="none"/>
          </g>
          <g id="長方形_125" data-name="長方形 125" transform="translate(19.815 586.562)" fill="#007104" stroke="#88b282" stroke-width="1">
            <rect width="14" height="14" stroke="none"/>
            <rect x="0.5" y="0.5" width="13" height="13" fill="none"/>
          </g>
          <g id="長方形_126" data-name="長方形 126" transform="translate(7.815 712.562)" fill="#007104" stroke="#88b282" stroke-width="1">
            <rect width="17" height="17" stroke="none"/>
            <rect x="0.5" y="0.5" width="16" height="16" fill="none"/>
          </g>
          <g id="長方形_127" data-name="長方形 127" transform="translate(13.815 826.562)" fill="#007104" stroke="#88b282" stroke-width="1">
            <rect width="13" height="13" stroke="none"/>
            <rect x="0.5" y="0.5" width="12" height="12" fill="none"/>
          </g>
          <g id="長方形_128" data-name="長方形 128" transform="translate(11.815 922.562)" fill="#007104" stroke="#88b282" stroke-width="1">
            <rect width="8" height="8" stroke="none"/>
            <rect x="0.5" y="0.5" width="7" height="7" fill="none"/>
          </g>
          <g id="長方形_129" data-name="長方形 129" transform="translate(13.815 983.562)" fill="#007104" stroke="#88b282" stroke-width="1">
            <rect width="6" height="6" stroke="none"/>
            <rect x="0.5" y="0.5" width="5" height="5" fill="none"/>
          </g>
          <g id="長方形_130" data-name="長方形 130" transform="translate(16.815 1042.562)" fill="#007104" stroke="#88b282" stroke-width="1">
            <rect width="10" height="10" stroke="none"/>
            <rect x="0.5" y="0.5" width="9" height="9" fill="none"/>
          </g>
          <g id="長方形_131" data-name="長方形 131" transform="translate(279.815 1149.562)" fill="#007104" stroke="#88b282" stroke-width="1">
            <rect width="11" height="11" stroke="none"/>
            <rect x="0.5" y="0.5" width="10" height="10" fill="none"/>
          </g>
          <g id="長方形_132" data-name="長方形 132" transform="translate(601.815 1138.562)" fill="#007104" stroke="#88b282" stroke-width="1">
            <rect width="12" height="12" stroke="none"/>
            <rect x="0.5" y="0.5" width="11" height="11" fill="none"/>
          </g>
          <g id="長方形_133" data-name="長方形 133" transform="translate(754.815 1138.562)" fill="#007104" stroke="#88b282" stroke-width="1">
            <rect width="17" height="17" stroke="none"/>
            <rect x="0.5" y="0.5" width="16" height="16" fill="none"/>
          </g>
          <g id="長方形_134" data-name="長方形 134" transform="translate(887.815 1020.562)" fill="#007104" stroke="#88b282" stroke-width="1">
            <rect width="7" height="7" stroke="none"/>
            <rect x="0.5" y="0.5" width="6" height="6" fill="none"/>
          </g>
          <g id="長方形_135" data-name="長方形 135" transform="translate(893.815 785.562)" fill="#007104" stroke="#88b282" stroke-width="1">
            <rect width="14" height="14" stroke="none"/>
            <rect x="0.5" y="0.5" width="13" height="13" fill="none"/>
          </g>
          <g id="長方形_136" data-name="長方形 136" transform="translate(894.815 650.562)" fill="#007104" stroke="#88b282" stroke-width="1">
            <rect width="7" height="7" stroke="none"/>
            <rect x="0.5" y="0.5" width="6" height="6" fill="none"/>
          </g>
          <g id="長方形_137" data-name="長方形 137" transform="translate(891.815 474.562)" fill="#007104" stroke="#88b282" stroke-width="1">
            <rect width="9" height="9" stroke="none"/>
            <rect x="0.5" y="0.5" width="8" height="8" fill="none"/>
          </g>
          <g id="長方形_138" data-name="長方形 138" transform="translate(893.815 313.562)" fill="#007104" stroke="#88b282" stroke-width="1">
            <rect width="10" height="10" stroke="none"/>
            <rect x="0.5" y="0.5" width="9" height="9" fill="none"/>
          </g>
          <g id="長方形_139" data-name="長方形 139" transform="translate(893.815 186.562)" fill="#007104" stroke="#88b282" stroke-width="1">
            <rect width="5" height="5" stroke="none"/>
            <rect x="0.5" y="0.5" width="4" height="4" fill="none"/>
          </g>
          <g id="長方形_140" data-name="長方形 140" transform="translate(891.815 134.562)" fill="#007104" stroke="#88b282" stroke-width="1">
            <rect width="10" height="10" stroke="none"/>
            <rect x="0.5" y="0.5" width="9" height="9" fill="none"/>
          </g>
        </g>
      </g>
    </g>
  </g>
</svg>
