<?xml version="1.0" encoding="UTF-8" standalone="no"?>
<svg
   xmlns:dc="http://purl.org/dc/elements/1.1/"
   xmlns:cc="http://creativecommons.org/ns#"
   xmlns:rdf="http://www.w3.org/1999/02/22-rdf-syntax-ns#"
   xmlns:svg="http://www.w3.org/2000/svg"
   xmlns="http://www.w3.org/2000/svg"
   xmlns:sodipodi="http://sodipodi.sourceforge.net/DTD/sodipodi-0.dtd"
   xmlns:inkscape="http://www.inkscape.org/namespaces/inkscape"
   inkscape:version="1.0 (4035a4fb49, 2020-05-01)"
   sodipodi:docname="top.svg"
   id="svg24"
   version="1.1"
   viewBox="0 0 509 17"
   height="17"
   width="509">
  <metadata
     id="metadata28">
    <rdf:RDF>
      <cc:Work
         rdf:about="">
        <dc:format>image/svg+xml</dc:format>
        <dc:type
           rdf:resource="http://purl.org/dc/dcmitype/StillImage" />
        <dc:title></dc:title>
      </cc:Work>
    </rdf:RDF>
  </metadata>
  <sodipodi:namedview
     inkscape:current-layer="svg24"
     inkscape:window-maximized="1"
     inkscape:window-y="-8"
     inkscape:window-x="-8"
     inkscape:cy="138.27264"
     inkscape:cx="184.75339"
     inkscape:zoom="1.9810104"
     showgrid="false"
     id="namedview26"
     inkscape:window-height="1057"
     inkscape:window-width="1920"
     inkscape:pageshadow="2"
     inkscape:pageopacity="0"
     guidetolerance="10"
     gridtolerance="10"
     objecttolerance="10"
     borderopacity="1"
     bordercolor="#666666"
     pagecolor="#ffffff" />
  <defs
     id="defs5">
    <clipPath
       id="clip-_1920_Web_1">
      <rect
         y="0"
         x="0"
         id="rect2"
         height="63"
         width="509" />
    </clipPath>
  </defs>
  <g
     transform="translate(0,-23.220474)"
     clip-path="url(#clip-_1920_Web_1)"
     data-name="1920 Web – 1"
     id="_1920_Web_1">
    <g
       transform="translate(-670.47,-400.262)"
       data-name="グループ 1"
       id="グループ_1">
      <path
         stroke-width="2.5"
         stroke-linecap="round"
         stroke="#ff0000"
         fill="none"
         d="m 679.143,433.987 h -1.677 c 0,0 -0.785,0 -0.805,0 -0.02,0 0,-0.712 0,-0.712 v -2.843 c 0,0 -0.011,-0.847 0,-0.882 a 5.588,5.588 0 0 1 0.767,0 H 682 c 0,0 0.6,-0.012 0.633,0 a 7.23,7.23 0 0 1 0,0.777 v 7.153 c 0,0 0.012,1.067 0,1.075 -0.012,0.008 -0.866,0 -0.866,0 H 673.9 c 0,0 -1.449,0.007 -1.467,0 -0.018,-0.007 0,-1.158 0,-1.158 v -9.881 c 0,0 -0.079,-2.482 0,-2.535 0.079,-0.053 2.814,0 2.814,0 h 10.776 c 0,0 0.943,-0.014 0.96,0 0.017,0.014 0,0.915 0,0.915 v 11.714 a 9.176,9.176 0 0 0 0,0.943 c 0.032,0.008 0.914,0 0.914,0 h 12.979 a 5.976,5.976 0 0 0 0.656,0 c 0.012,-0.024 -0.007,-0.936 -0.007,-0.936 l -0.092,-11.8 c 0,0 0,-0.808 -0.007,-0.841 a 9.5,9.5 0 0 0 -0.972,0 h -8.325 c 0,0 -0.9,-0.029 -0.9,0 0,0.029 0,0.982 0,0.982 v 7.242 c 0,0 0.013,0.77 0,0.789 -0.013,0.019 0.776,0 0.776,0 h 4.695 c 0,0 0.56,0.018 0.588,0 a 6.706,6.706 0 0 0 0,-0.758 v -2.887 c 0,0 0,-0.749 0,-0.792 a 3.792,3.792 0 0 0 -0.7,0 h -1.863"
         data-name="パス 1"
         id="パス_1" />
      <path
         stroke-width="2.5"
         stroke-linecap="round"
         stroke="#ff0000"
         fill="none"
         transform="translate(34)"
         d="m 679.143,433.987 h -1.677 c 0,0 -0.785,0 -0.805,0 -0.02,0 0,-0.712 0,-0.712 v -2.843 c 0,0 -0.011,-0.847 0,-0.882 a 5.588,5.588 0 0 1 0.767,0 H 682 c 0,0 0.6,-0.012 0.633,0 a 7.23,7.23 0 0 1 0,0.777 v 7.153 c 0,0 0.012,1.067 0,1.075 -0.012,0.008 -0.866,0 -0.866,0 H 673.9 c 0,0 -1.449,0.007 -1.467,0 -0.018,-0.007 0,-1.158 0,-1.158 v -9.881 c 0,0 -0.079,-2.482 0,-2.535 0.079,-0.053 2.814,0 2.814,0 h 10.776 c 0,0 0.943,-0.014 0.96,0 0.017,0.014 0,0.915 0,0.915 v 11.714 a 9.176,9.176 0 0 0 0,0.943 c 0.032,0.008 0.914,0 0.914,0 h 12.979 a 5.976,5.976 0 0 0 0.656,0 c 0.012,-0.024 -0.007,-0.936 -0.007,-0.936 l -0.092,-11.8 c 0,0 0,-0.808 -0.007,-0.841 a 9.5,9.5 0 0 0 -0.972,0 h -8.325 c 0,0 -0.9,-0.029 -0.9,0 0,0.029 0,0.982 0,0.982 v 7.242 c 0,0 0.013,0.77 0,0.789 -0.013,0.019 0.776,0 0.776,0 h 4.695 c 0,0 0.56,0.018 0.588,0 a 6.706,6.706 0 0 0 0,-0.758 v -2.887 c 0,0 0,-0.749 0,-0.792 a 3.792,3.792 0 0 0 -0.7,0 h -1.863"
         data-name="パス 2"
         id="パス_2" />
      <path
         stroke-width="2.5"
         stroke-linecap="round"
         stroke="#ff0000"
         fill="none"
         transform="translate(68)"
         d="m 679.143,433.987 h -1.677 c 0,0 -0.785,0 -0.805,0 -0.02,0 0,-0.712 0,-0.712 v -2.843 c 0,0 -0.011,-0.847 0,-0.882 a 5.588,5.588 0 0 1 0.767,0 H 682 c 0,0 0.6,-0.012 0.633,0 a 7.23,7.23 0 0 1 0,0.777 v 7.153 c 0,0 0.012,1.067 0,1.075 -0.012,0.008 -0.866,0 -0.866,0 H 673.9 c 0,0 -1.449,0.007 -1.467,0 -0.018,-0.007 0,-1.158 0,-1.158 v -9.881 c 0,0 -0.079,-2.482 0,-2.535 0.079,-0.053 2.814,0 2.814,0 h 10.776 c 0,0 0.943,-0.014 0.96,0 0.017,0.014 0,0.915 0,0.915 v 11.714 a 9.176,9.176 0 0 0 0,0.943 c 0.032,0.008 0.914,0 0.914,0 h 12.979 a 5.976,5.976 0 0 0 0.656,0 c 0.012,-0.024 -0.007,-0.936 -0.007,-0.936 l -0.092,-11.8 c 0,0 0,-0.808 -0.007,-0.841 a 9.5,9.5 0 0 0 -0.972,0 h -8.325 c 0,0 -0.9,-0.029 -0.9,0 0,0.029 0,0.982 0,0.982 v 7.242 c 0,0 0.013,0.77 0,0.789 -0.013,0.019 0.776,0 0.776,0 h 4.695 c 0,0 0.56,0.018 0.588,0 a 6.706,6.706 0 0 0 0,-0.758 v -2.887 c 0,0 0,-0.749 0,-0.792 a 3.792,3.792 0 0 0 -0.7,0 h -1.863"
         data-name="パス 3"
         id="パス_3" />
      <path
         stroke-width="2.5"
         stroke-linecap="round"
         stroke="#ff0000"
         fill="none"
         transform="translate(102)"
         d="m 679.143,433.987 h -1.677 c 0,0 -0.785,0 -0.805,0 -0.02,0 0,-0.712 0,-0.712 v -2.843 c 0,0 -0.011,-0.847 0,-0.882 a 5.588,5.588 0 0 1 0.767,0 H 682 c 0,0 0.6,-0.012 0.633,0 a 7.23,7.23 0 0 1 0,0.777 v 7.153 c 0,0 0.012,1.067 0,1.075 -0.012,0.008 -0.866,0 -0.866,0 H 673.9 c 0,0 -1.449,0.007 -1.467,0 -0.018,-0.007 0,-1.158 0,-1.158 v -9.881 c 0,0 -0.079,-2.482 0,-2.535 0.079,-0.053 2.814,0 2.814,0 h 10.776 c 0,0 0.943,-0.014 0.96,0 0.017,0.014 0,0.915 0,0.915 v 11.714 a 9.176,9.176 0 0 0 0,0.943 c 0.032,0.008 0.914,0 0.914,0 h 12.979 a 5.976,5.976 0 0 0 0.656,0 c 0.012,-0.024 -0.007,-0.936 -0.007,-0.936 l -0.092,-11.8 c 0,0 0,-0.808 -0.007,-0.841 a 9.5,9.5 0 0 0 -0.972,0 h -8.325 c 0,0 -0.9,-0.029 -0.9,0 0,0.029 0,0.982 0,0.982 v 7.242 c 0,0 0.013,0.77 0,0.789 -0.013,0.019 0.776,0 0.776,0 h 4.695 c 0,0 0.56,0.018 0.588,0 a 6.706,6.706 0 0 0 0,-0.758 v -2.887 c 0,0 0,-0.749 0,-0.792 a 3.792,3.792 0 0 0 -0.7,0 h -1.863"
         data-name="パス 4"
         id="パス_4" />
      <path
         stroke-width="2.5"
         stroke-linecap="round"
         stroke="#ff0000"
         fill="none"
         transform="translate(136)"
         d="m 679.143,433.987 h -1.677 c 0,0 -0.785,0 -0.805,0 -0.02,0 0,-0.712 0,-0.712 v -2.843 c 0,0 -0.011,-0.847 0,-0.882 a 5.588,5.588 0 0 1 0.767,0 H 682 c 0,0 0.6,-0.012 0.633,0 a 7.23,7.23 0 0 1 0,0.777 v 7.153 c 0,0 0.012,1.067 0,1.075 -0.012,0.008 -0.866,0 -0.866,0 H 673.9 c 0,0 -1.449,0.007 -1.467,0 -0.018,-0.007 0,-1.158 0,-1.158 v -9.881 c 0,0 -0.079,-2.482 0,-2.535 0.079,-0.053 2.814,0 2.814,0 h 10.776 c 0,0 0.943,-0.014 0.96,0 0.017,0.014 0,0.915 0,0.915 v 11.714 a 9.176,9.176 0 0 0 0,0.943 c 0.032,0.008 0.914,0 0.914,0 h 12.979 a 5.976,5.976 0 0 0 0.656,0 c 0.012,-0.024 -0.007,-0.936 -0.007,-0.936 l -0.092,-11.8 c 0,0 0,-0.808 -0.007,-0.841 a 9.5,9.5 0 0 0 -0.972,0 h -8.325 c 0,0 -0.9,-0.029 -0.9,0 0,0.029 0,0.982 0,0.982 v 7.242 c 0,0 0.013,0.77 0,0.789 -0.013,0.019 0.776,0 0.776,0 h 4.695 c 0,0 0.56,0.018 0.588,0 a 6.706,6.706 0 0 0 0,-0.758 v -2.887 c 0,0 0,-0.749 0,-0.792 a 3.792,3.792 0 0 0 -0.7,0 h -1.863"
         data-name="パス 5"
         id="パス_5" />
      <path
         stroke-width="2.5"
         stroke-linecap="round"
         stroke="#ff0000"
         fill="none"
         transform="translate(170)"
         d="m 679.143,433.987 h -1.677 c 0,0 -0.785,0 -0.805,0 -0.02,0 0,-0.712 0,-0.712 v -2.843 c 0,0 -0.011,-0.847 0,-0.882 a 5.588,5.588 0 0 1 0.767,0 H 682 c 0,0 0.6,-0.012 0.633,0 a 7.23,7.23 0 0 1 0,0.777 v 7.153 c 0,0 0.012,1.067 0,1.075 -0.012,0.008 -0.866,0 -0.866,0 H 673.9 c 0,0 -1.449,0.007 -1.467,0 -0.018,-0.007 0,-1.158 0,-1.158 v -9.881 c 0,0 -0.079,-2.482 0,-2.535 0.079,-0.053 2.814,0 2.814,0 h 10.776 c 0,0 0.943,-0.014 0.96,0 0.017,0.014 0,0.915 0,0.915 v 11.714 a 9.176,9.176 0 0 0 0,0.943 c 0.032,0.008 0.914,0 0.914,0 h 12.979 a 5.976,5.976 0 0 0 0.656,0 c 0.012,-0.024 -0.007,-0.936 -0.007,-0.936 l -0.092,-11.8 c 0,0 0,-0.808 -0.007,-0.841 a 9.5,9.5 0 0 0 -0.972,0 h -8.325 c 0,0 -0.9,-0.029 -0.9,0 0,0.029 0,0.982 0,0.982 v 7.242 c 0,0 0.013,0.77 0,0.789 -0.013,0.019 0.776,0 0.776,0 h 4.695 c 0,0 0.56,0.018 0.588,0 a 6.706,6.706 0 0 0 0,-0.758 v -2.887 c 0,0 0,-0.749 0,-0.792 a 3.792,3.792 0 0 0 -0.7,0 h -1.863"
         data-name="パス 6"
         id="パス_6" />
      <path
         stroke-width="2.5"
         stroke-linecap="round"
         stroke="#ff0000"
         fill="none"
         transform="translate(204)"
         d="m 679.143,433.987 h -1.677 c 0,0 -0.785,0 -0.805,0 -0.02,0 0,-0.712 0,-0.712 v -2.843 c 0,0 -0.011,-0.847 0,-0.882 a 5.588,5.588 0 0 1 0.767,0 H 682 c 0,0 0.6,-0.012 0.633,0 a 7.23,7.23 0 0 1 0,0.777 v 7.153 c 0,0 0.012,1.067 0,1.075 -0.012,0.008 -0.866,0 -0.866,0 H 673.9 c 0,0 -1.449,0.007 -1.467,0 -0.018,-0.007 0,-1.158 0,-1.158 v -9.881 c 0,0 -0.079,-2.482 0,-2.535 0.079,-0.053 2.814,0 2.814,0 h 10.776 c 0,0 0.943,-0.014 0.96,0 0.017,0.014 0,0.915 0,0.915 v 11.714 a 9.176,9.176 0 0 0 0,0.943 c 0.032,0.008 0.914,0 0.914,0 h 12.979 a 5.976,5.976 0 0 0 0.656,0 c 0.012,-0.024 -0.007,-0.936 -0.007,-0.936 l -0.092,-11.8 c 0,0 0,-0.808 -0.007,-0.841 a 9.5,9.5 0 0 0 -0.972,0 h -8.325 c 0,0 -0.9,-0.029 -0.9,0 0,0.029 0,0.982 0,0.982 v 7.242 c 0,0 0.013,0.77 0,0.789 -0.013,0.019 0.776,0 0.776,0 h 4.695 c 0,0 0.56,0.018 0.588,0 a 6.706,6.706 0 0 0 0,-0.758 v -2.887 c 0,0 0,-0.749 0,-0.792 a 3.792,3.792 0 0 0 -0.7,0 h -1.863"
         data-name="パス 7"
         id="パス_7" />
      <path
         stroke-width="2.5"
         stroke-linecap="round"
         stroke="#ff0000"
         fill="none"
         transform="translate(238)"
         d="m 679.143,433.987 h -1.677 c 0,0 -0.785,0 -0.805,0 -0.02,0 0,-0.712 0,-0.712 v -2.843 c 0,0 -0.011,-0.847 0,-0.882 a 5.588,5.588 0 0 1 0.767,0 H 682 c 0,0 0.6,-0.012 0.633,0 a 7.23,7.23 0 0 1 0,0.777 v 7.153 c 0,0 0.012,1.067 0,1.075 -0.012,0.008 -0.866,0 -0.866,0 H 673.9 c 0,0 -1.449,0.007 -1.467,0 -0.018,-0.007 0,-1.158 0,-1.158 v -9.881 c 0,0 -0.079,-2.482 0,-2.535 0.079,-0.053 2.814,0 2.814,0 h 10.776 c 0,0 0.943,-0.014 0.96,0 0.017,0.014 0,0.915 0,0.915 v 11.714 a 9.176,9.176 0 0 0 0,0.943 c 0.032,0.008 0.914,0 0.914,0 h 12.979 a 5.976,5.976 0 0 0 0.656,0 c 0.012,-0.024 -0.007,-0.936 -0.007,-0.936 l -0.092,-11.8 c 0,0 0,-0.808 -0.007,-0.841 a 9.5,9.5 0 0 0 -0.972,0 h -8.325 c 0,0 -0.9,-0.029 -0.9,0 0,0.029 0,0.982 0,0.982 v 7.242 c 0,0 0.013,0.77 0,0.789 -0.013,0.019 0.776,0 0.776,0 h 4.695 c 0,0 0.56,0.018 0.588,0 a 6.706,6.706 0 0 0 0,-0.758 v -2.887 c 0,0 0,-0.749 0,-0.792 a 3.792,3.792 0 0 0 -0.7,0 h -1.863"
         data-name="パス 8"
         id="パス_8" />
      <path
         stroke-width="2.5"
         stroke-linecap="round"
         stroke="#ff0000"
         fill="none"
         transform="translate(272)"
         d="m 679.143,433.987 h -1.677 c 0,0 -0.785,0 -0.805,0 -0.02,0 0,-0.712 0,-0.712 v -2.843 c 0,0 -0.011,-0.847 0,-0.882 a 5.588,5.588 0 0 1 0.767,0 H 682 c 0,0 0.6,-0.012 0.633,0 a 7.23,7.23 0 0 1 0,0.777 v 7.153 c 0,0 0.012,1.067 0,1.075 -0.012,0.008 -0.866,0 -0.866,0 H 673.9 c 0,0 -1.449,0.007 -1.467,0 -0.018,-0.007 0,-1.158 0,-1.158 v -9.881 c 0,0 -0.079,-2.482 0,-2.535 0.079,-0.053 2.814,0 2.814,0 h 10.776 c 0,0 0.943,-0.014 0.96,0 0.017,0.014 0,0.915 0,0.915 v 11.714 a 9.176,9.176 0 0 0 0,0.943 c 0.032,0.008 0.914,0 0.914,0 h 12.979 a 5.976,5.976 0 0 0 0.656,0 c 0.012,-0.024 -0.007,-0.936 -0.007,-0.936 l -0.092,-11.8 c 0,0 0,-0.808 -0.007,-0.841 a 9.5,9.5 0 0 0 -0.972,0 h -8.325 c 0,0 -0.9,-0.029 -0.9,0 0,0.029 0,0.982 0,0.982 v 7.242 c 0,0 0.013,0.77 0,0.789 -0.013,0.019 0.776,0 0.776,0 h 4.695 c 0,0 0.56,0.018 0.588,0 a 6.706,6.706 0 0 0 0,-0.758 v -2.887 c 0,0 0,-0.749 0,-0.792 a 3.792,3.792 0 0 0 -0.7,0 h -1.863"
         data-name="パス 9"
         id="パス_9" />
      <path
         stroke-width="2.5"
         stroke-linecap="round"
         stroke="#ff0000"
         fill="none"
         transform="translate(306)"
         d="m 679.143,433.987 h -1.677 c 0,0 -0.785,0 -0.805,0 -0.02,0 0,-0.712 0,-0.712 v -2.843 c 0,0 -0.011,-0.847 0,-0.882 a 5.588,5.588 0 0 1 0.767,0 H 682 c 0,0 0.6,-0.012 0.633,0 a 7.23,7.23 0 0 1 0,0.777 v 7.153 c 0,0 0.012,1.067 0,1.075 -0.012,0.008 -0.866,0 -0.866,0 H 673.9 c 0,0 -1.449,0.007 -1.467,0 -0.018,-0.007 0,-1.158 0,-1.158 v -9.881 c 0,0 -0.079,-2.482 0,-2.535 0.079,-0.053 2.814,0 2.814,0 h 10.776 c 0,0 0.943,-0.014 0.96,0 0.017,0.014 0,0.915 0,0.915 v 11.714 a 9.176,9.176 0 0 0 0,0.943 c 0.032,0.008 0.914,0 0.914,0 h 12.979 a 5.976,5.976 0 0 0 0.656,0 c 0.012,-0.024 -0.007,-0.936 -0.007,-0.936 l -0.092,-11.8 c 0,0 0,-0.808 -0.007,-0.841 a 9.5,9.5 0 0 0 -0.972,0 h -8.325 c 0,0 -0.9,-0.029 -0.9,0 0,0.029 0,0.982 0,0.982 v 7.242 c 0,0 0.013,0.77 0,0.789 -0.013,0.019 0.776,0 0.776,0 h 4.695 c 0,0 0.56,0.018 0.588,0 a 6.706,6.706 0 0 0 0,-0.758 v -2.887 c 0,0 0,-0.749 0,-0.792 a 3.792,3.792 0 0 0 -0.7,0 h -1.863"
         data-name="パス 10"
         id="パス_10" />
      <path
         stroke-width="2.5"
         stroke-linecap="round"
         stroke="#ff0000"
         fill="none"
         transform="translate(340)"
         d="m 679.143,433.987 h -1.677 c 0,0 -0.785,0 -0.805,0 -0.02,0 0,-0.712 0,-0.712 v -2.843 c 0,0 -0.011,-0.847 0,-0.882 a 5.588,5.588 0 0 1 0.767,0 H 682 c 0,0 0.6,-0.012 0.633,0 a 7.23,7.23 0 0 1 0,0.777 v 7.153 c 0,0 0.012,1.067 0,1.075 -0.012,0.008 -0.866,0 -0.866,0 H 673.9 c 0,0 -1.449,0.007 -1.467,0 -0.018,-0.007 0,-1.158 0,-1.158 v -9.881 c 0,0 -0.079,-2.482 0,-2.535 0.079,-0.053 2.814,0 2.814,0 h 10.776 c 0,0 0.943,-0.014 0.96,0 0.017,0.014 0,0.915 0,0.915 v 11.714 a 9.176,9.176 0 0 0 0,0.943 c 0.032,0.008 0.914,0 0.914,0 h 12.979 a 5.976,5.976 0 0 0 0.656,0 c 0.012,-0.024 -0.007,-0.936 -0.007,-0.936 l -0.092,-11.8 c 0,0 0,-0.808 -0.007,-0.841 a 9.5,9.5 0 0 0 -0.972,0 h -8.325 c 0,0 -0.9,-0.029 -0.9,0 0,0.029 0,0.982 0,0.982 v 7.242 c 0,0 0.013,0.77 0,0.789 -0.013,0.019 0.776,0 0.776,0 h 4.695 c 0,0 0.56,0.018 0.588,0 a 6.706,6.706 0 0 0 0,-0.758 v -2.887 c 0,0 0,-0.749 0,-0.792 a 3.792,3.792 0 0 0 -0.7,0 h -1.863"
         data-name="パス 11"
         id="パス_11" />
      <path
         stroke-width="2.5"
         stroke-linecap="round"
         stroke="#ff0000"
         fill="none"
         transform="translate(374)"
         d="m 679.143,433.987 h -1.677 c 0,0 -0.785,0 -0.805,0 -0.02,0 0,-0.712 0,-0.712 v -2.843 c 0,0 -0.011,-0.847 0,-0.882 a 5.588,5.588 0 0 1 0.767,0 H 682 c 0,0 0.6,-0.012 0.633,0 a 7.23,7.23 0 0 1 0,0.777 v 7.153 c 0,0 0.012,1.067 0,1.075 -0.012,0.008 -0.866,0 -0.866,0 H 673.9 c 0,0 -1.449,0.007 -1.467,0 -0.018,-0.007 0,-1.158 0,-1.158 v -9.881 c 0,0 -0.079,-2.482 0,-2.535 0.079,-0.053 2.814,0 2.814,0 h 10.776 c 0,0 0.943,-0.014 0.96,0 0.017,0.014 0,0.915 0,0.915 v 11.714 a 9.176,9.176 0 0 0 0,0.943 c 0.032,0.008 0.914,0 0.914,0 h 12.979 a 5.976,5.976 0 0 0 0.656,0 c 0.012,-0.024 -0.007,-0.936 -0.007,-0.936 l -0.092,-11.8 c 0,0 0,-0.808 -0.007,-0.841 a 9.5,9.5 0 0 0 -0.972,0 h -8.325 c 0,0 -0.9,-0.029 -0.9,0 0,0.029 0,0.982 0,0.982 v 7.242 c 0,0 0.013,0.77 0,0.789 -0.013,0.019 0.776,0 0.776,0 h 4.695 c 0,0 0.56,0.018 0.588,0 a 6.706,6.706 0 0 0 0,-0.758 v -2.887 c 0,0 0,-0.749 0,-0.792 a 3.792,3.792 0 0 0 -0.7,0 h -1.863"
         data-name="パス 12"
         id="パス_12" />
      <path
         stroke-width="2.5"
         stroke-linecap="round"
         stroke="#ff0000"
         fill="none"
         transform="translate(408)"
         d="m 679.143,433.987 h -1.677 c 0,0 -0.785,0 -0.805,0 -0.02,0 0,-0.712 0,-0.712 v -2.843 c 0,0 -0.011,-0.847 0,-0.882 a 5.588,5.588 0 0 1 0.767,0 H 682 c 0,0 0.6,-0.012 0.633,0 a 7.23,7.23 0 0 1 0,0.777 v 7.153 c 0,0 0.012,1.067 0,1.075 -0.012,0.008 -0.866,0 -0.866,0 H 673.9 c 0,0 -1.449,0.007 -1.467,0 -0.018,-0.007 0,-1.158 0,-1.158 v -9.881 c 0,0 -0.079,-2.482 0,-2.535 0.079,-0.053 2.814,0 2.814,0 h 10.776 c 0,0 0.943,-0.014 0.96,0 0.017,0.014 0,0.915 0,0.915 v 11.714 a 9.176,9.176 0 0 0 0,0.943 c 0.032,0.008 0.914,0 0.914,0 h 12.979 a 5.976,5.976 0 0 0 0.656,0 c 0.012,-0.024 -0.007,-0.936 -0.007,-0.936 l -0.092,-11.8 c 0,0 0,-0.808 -0.007,-0.841 a 9.5,9.5 0 0 0 -0.972,0 h -8.325 c 0,0 -0.9,-0.029 -0.9,0 0,0.029 0,0.982 0,0.982 v 7.242 c 0,0 0.013,0.77 0,0.789 -0.013,0.019 0.776,0 0.776,0 h 4.695 c 0,0 0.56,0.018 0.588,0 a 6.706,6.706 0 0 0 0,-0.758 v -2.887 c 0,0 0,-0.749 0,-0.792 a 3.792,3.792 0 0 0 -0.7,0 h -1.863"
         data-name="パス 13"
         id="パス_13" />
      <path
         stroke-width="2.5"
         stroke-linecap="round"
         stroke="#ff0000"
         fill="none"
         transform="translate(442)"
         d="m 679.143,433.987 h -1.677 c 0,0 -0.785,0 -0.805,0 -0.02,0 0,-0.712 0,-0.712 v -2.843 c 0,0 -0.011,-0.847 0,-0.882 a 5.588,5.588 0 0 1 0.767,0 H 682 c 0,0 0.6,-0.012 0.633,0 a 7.23,7.23 0 0 1 0,0.777 v 7.153 c 0,0 0.012,1.067 0,1.075 -0.012,0.008 -0.866,0 -0.866,0 H 673.9 c 0,0 -1.449,0.007 -1.467,0 -0.018,-0.007 0,-1.158 0,-1.158 v -9.881 c 0,0 -0.079,-2.482 0,-2.535 0.079,-0.053 2.814,0 2.814,0 h 10.776 c 0,0 0.943,-0.014 0.96,0 0.017,0.014 0,0.915 0,0.915 v 11.714 a 9.176,9.176 0 0 0 0,0.943 c 0.032,0.008 0.914,0 0.914,0 h 12.979 a 5.976,5.976 0 0 0 0.656,0 c 0.012,-0.024 -0.007,-0.936 -0.007,-0.936 l -0.092,-11.8 c 0,0 0,-0.808 -0.007,-0.841 a 9.5,9.5 0 0 0 -0.972,0 h -8.325 c 0,0 -0.9,-0.029 -0.9,0 0,0.029 0,0.982 0,0.982 v 7.242 c 0,0 0.013,0.77 0,0.789 -0.013,0.019 0.776,0 0.776,0 h 4.695 c 0,0 0.56,0.018 0.588,0 a 6.706,6.706 0 0 0 0,-0.758 v -2.887 c 0,0 0,-0.749 0,-0.792 a 3.792,3.792 0 0 0 -0.7,0 h -1.863"
         data-name="パス 14"
         id="パス_14" />
      <path
         stroke-width="2.5"
         stroke-linecap="round"
         stroke="#ff0000"
         fill="none"
         transform="translate(476)"
         d="m 679.143,433.987 h -1.677 c 0,0 -0.785,0 -0.805,0 -0.02,0 0,-0.712 0,-0.712 v -2.843 c 0,0 -0.011,-0.847 0,-0.882 a 5.588,5.588 0 0 1 0.767,0 H 682 c 0,0 0.6,-0.012 0.633,0 a 7.23,7.23 0 0 1 0,0.777 v 7.153 c 0,0 0.012,1.067 0,1.075 -0.012,0.008 -0.866,0 -0.866,0 H 673.9 c 0,0 -1.449,0.007 -1.467,0 -0.018,-0.007 0,-1.158 0,-1.158 v -9.881 c 0,0 -0.079,-2.482 0,-2.535 0.079,-0.053 2.814,0 2.814,0 h 10.776 c 0,0 0.943,-0.014 0.96,0 0.017,0.014 0,0.915 0,0.915 v 11.714 a 9.176,9.176 0 0 0 0,0.943 c 0.032,0.008 0.914,0 0.914,0 h 12.979 a 5.976,5.976 0 0 0 0.656,0 c 0.012,-0.024 -0.007,-0.936 -0.007,-0.936 l -0.092,-11.8 c 0,0 0,-0.808 -0.007,-0.841 a 9.5,9.5 0 0 0 -0.972,0 h -8.325 c 0,0 -0.9,-0.029 -0.9,0 0,0.029 0,0.982 0,0.982 v 7.242 c 0,0 0.013,0.77 0,0.789 -0.013,0.019 0.776,0 0.776,0 h 4.695 c 0,0 0.56,0.018 0.588,0 a 6.706,6.706 0 0 0 0,-0.758 v -2.887 c 0,0 0,-0.749 0,-0.792 a 3.792,3.792 0 0 0 -0.7,0 h -1.863"
         data-name="パス 15"
         id="パス_15" />
    </g>
  </g>
</svg>
