<svg xmlns="http://www.w3.org/2000/svg" xmlns:xlink="http://www.w3.org/1999/xlink" width="23" height="46" viewBox="0 0 23 46">
  <defs>
    <clipPath id="clip-iPhone_XR_XS_Max_11_1">
      <rect width="23" height="46"/>
    </clipPath>
  </defs>
  <g id="iPhone_XR_XS_Max_11_1" data-name="iPhone XR/XS Max/11 – 1" clip-path="url(#clip-iPhone_XR_XS_Max_11_1)">
    <path id="パス_48" data-name="パス 48" d="M-1095.359,3117v.625l-.094.094v.531l-.187.188.063.406-.2.188.063.25v.234l-.156.156v.438l-.187.281.094.2.328.141.188-.25h.641l.109-.094h.578l.672-.562.234-.25.313-.062v.313l.141.156.156.266.188.234-.187.25v.344l-.156.2v.328l-.141.188v.484l-.141.156v.469l-.312.25-.281.063-.359-.422-.219-.234-.359-.125-.234-.3-.25-.156h-.172l-.125.3-.094.156v.359l.094.266-.859.594-.094-.3-.2-.453-.141-.219v-.828l-.156-.062v-.953l-.156-.25-.078-.2-.25-.281h-.281l-.312.141-.3.141-.219-.141-.3-.141-.375-.125-.141.125v.625l-.141.219-.156.125.156.266.141.266.422.188.172.188-.172.156h-.281l-.141.141v.281l-.141.125v.3l.063.234-.219.2v.563l-.172.172-.172.094-.2.109-.156.078-.156.25-.281.063-.281-.062-.266.063h-.172l-.812,1.2.141.3.266.3v.891l.172.25.234.109.094.359.156.188.188.859v.422l-.266.141v.313l-.172.172.094.391h-.234v.313l-.984,1.234-.453-.25-.234.125v.516l.234.063v.391l.453.078.219-.172.234-.094.266-.094.094-.172.563.781.188.188.063.25.219.281-.094.625-.187.266.063,2.281-.328.266v.2h-.172v.234l-.141.094v.328l-.266.359v.578l-.2.172v.547l.109.172-.2.391v1.141l.094.188-.344.313-.2.344-.187.547-.281.3-.141.266-.078.281-.141.3-.234.391-.187.219-.078.188-.094.266v.25l.094.125h.266l.375.125.219.125v.438l-.078.391.078.188.281.188.391.313.344.281.2.156v.2l-.2.281-.344.156-.391.109-.359.266-.141.422v1.031l-.141.125v.219l-.109.313-.125.266.125.344.109.172.281.328.359.328-1.406,1.516.172.344v.406l.172.281-.172.25h-.7l-.422.359-.359.094h-.625l-.391.078-.172.344v.406l.313.281-.562.938.484.547.078.328-.312.172v.219l.172.266.141.078.172.063v1.422l.625.172.438.063.422-.062.391-.266.8-.5.547-.391.453-.219.375-.359.531-.266.375-.219.625.063.594.156.547.172.516.3.391.375v.781l.078.2.531.375.734.578.2.188h.3l.547-.562.375-.516.109-.266.328.2.3.172.25.125.3.078.328-.2.438-.375.5-.687.234-.406s.078-.641.078-.687v-.422l.2-.406v-1.125l.094-1.125v-1.281l-.094-1.2-.328-.344-.125-.5-.187-.656-.219-.406-.281-.109.281-.2-.109-.812v-.453l-.172-.422.281-.266.219-.484.313-.266.125-.406-.125-.234.125-.281-.25-.234.359-.344h.5l.453-.219.328.109.359-.187.328-.094.219.094.328-.2.359-.281.313-.078v-.453l-.094-.156.281-.094-.078-.266h-.328l-.187-.109.094-.3.313-.391v-.187l-.312-.109-.094-.281.313-.125.094-.141v-.484l.188-.531h.219v-.672h.188l.219.188.125-.328-.125-.359a2.708,2.708,0,0,0,.125-.516c-.047.047.25.172.25.172l.219-.078v-.531l.281.188h.281l.172-.266v-.719l.109-.172v-.25l.172-.172.3-.3-.187-.156v-.2l.109-.187-.109-.187v-.344l.266-.172.078-.234-.078-.156.078-.281.109-.234-.187-.328.188-.25.234-.156.188-.234v-.25l-.109-.25v-.266l-.312.094h-.187l.078-.328.109-.391v-1.141l-.109-.187v-.531l-.156-.25v-.562l-.984-.891.078-.312.172-.219-.172-.2-.281-.156-.312-.172.125-.344.188-.156v-.234l-.312-.344-.172-.312-.234-.328-.25-.172-.187-.281h-.141s-.156-.391-.109-.406-.2-.391-.2-.391l-.266-.172-.266-.109h-.125l-.3.109-.141-.187.063-.406-.312-.5-.078-.234v-.187l-.187-.281v-.625l-.3-.078-.187.344v.359s-.281-.047-.234,0,0-.437,0-.437l.141-.187v-.328h.281l.156-.2v-.375l-.156-.187v-.656l.156-.344v-2.125l.141-.156v-1.266l-.141-.234h-.281l-.234.234-.25.109-.234.188h-.187l-.3-.109-.312-.187-.422-.234-.094-.187-.172-.109-.219-.094-.094-.156h-.3v-.156l-.187-.125-.359-.109Z" transform="translate(1106.875 -3117)" stroke="#000" stroke-width="0.1"/>
  </g>
</svg>
