<svg xmlns="http://www.w3.org/2000/svg" xmlns:xlink="http://www.w3.org/1999/xlink" width="894" height="397" viewBox="0 0 894 397">
  <defs>
    <clipPath id="clip-そば_枠">
      <rect width="894" height="397"/>
    </clipPath>
  </defs>
  <g id="そば_枠" data-name="そば 枠" clip-path="url(#clip-そば_枠)">
    <g id="グループ_236" data-name="グループ 236" transform="translate(-76.645 -1425.083)">
      <g id="グループ_229" data-name="グループ 229" transform="translate(1949.182 -162.271) rotate(90)">
        <path id="パス_20" data-name="パス 20" d="M1625,5304.182v866.849h8.622l1.437-866.849Z" transform="translate(-29 -4315)" fill="#727067" stroke="#582f1d" stroke-width="1"/>
        <path id="パス_21" data-name="パス 21" d="M1635.059,5304.182l-1.437,866.849h9.1l2.156-866.849Z" transform="translate(-29 -4315)" fill="#727067" stroke="#582f1d" stroke-width="1"/>
        <path id="パス_22" data-name="パス 22" d="M1644.878,5304.182l-1.916,866.849H1654.7V5304.182Z" transform="translate(-29 -4315)" fill="#727067" stroke="#582f1d" stroke-width="1"/>
      </g>
      <g id="グループ_230" data-name="グループ 230" transform="translate(-896.031 3411.784) rotate(-90)">
        <path id="パス_20-2" data-name="パス 20" d="M1625,5304.182V6171.03h8.622l1.437-866.848Z" transform="translate(-29 -4315)" fill="#727067" stroke="#582f1d" stroke-width="1"/>
        <path id="パス_21-2" data-name="パス 21" d="M1635.059,5304.182l-1.437,866.848h9.1l2.156-866.848Z" transform="translate(-29 -4315)" fill="#727067" stroke="#582f1d" stroke-width="1"/>
        <path id="パス_22-2" data-name="パス 22" d="M1644.878,5304.182l-1.916,866.848H1654.7V5304.182Z" transform="translate(-29 -4315)" fill="#727067" stroke="#582f1d" stroke-width="1"/>
      </g>
      <g id="グループ_231" data-name="グループ 231" transform="translate(-665.699 450.429)">
        <path id="パス_20-3" data-name="パス 20" d="M1625,5304.182v376.174h8.622l1.437-376.174Z" transform="translate(-29 -4315)" fill="#727067" stroke="#582f1d" stroke-width="1"/>
        <path id="パス_21-3" data-name="パス 21" d="M1635.059,5304.182l-1.437,376.174h9.1l2.156-376.174Z" transform="translate(-29 -4315)" fill="#727067" stroke="#582f1d" stroke-width="1"/>
        <path id="パス_22-3" data-name="パス 22" d="M1644.878,5304.182l-1.916,376.174H1654.7V5304.182Z" transform="translate(-29 -4315)" fill="#727067" stroke="#582f1d" stroke-width="1"/>
      </g>
      <g id="グループ_232" data-name="グループ 232" transform="translate(-1502.849 448.179)">
        <path id="パス_20-4" data-name="パス 20" d="M1625,5304.182v376.174h8.622l1.437-376.174Z" transform="translate(-29 -4315)" fill="#727067" stroke="#582f1d" stroke-width="1"/>
        <path id="パス_21-4" data-name="パス 21" d="M1635.059,5304.182l-1.437,376.174h9.1l2.156-376.174Z" transform="translate(-29 -4315)" fill="#727067" stroke="#582f1d" stroke-width="1"/>
        <path id="パス_22-4" data-name="パス 22" d="M1644.878,5304.182l-1.916,376.174H1654.7V5304.182Z" transform="translate(-29 -4315)" fill="#727067" stroke="#582f1d" stroke-width="1"/>
      </g>
      <g id="グループ_235" data-name="グループ 235">
        <g id="グループ_221" data-name="グループ 221" transform="translate(-872.674 719.214)">
          <path id="パス_23" data-name="パス 23" d="M1784.674,5377.291c-.44,5.052,5.129,9.621,11.237,4.947s15.333-9.271,19.2-14.339c2.4-3.137,2.4-6.256,4.193-10.863s3.3-6.508,2.991-7.563c-.808-2.771,1.252-3.916-1.171-3.916s-.952.476-9.871,6.326c-2.756,1.808-10.71,7.8-13.584,10.146C1791.7,5366.9,1785.114,5372.238,1784.674,5377.291Z" transform="translate(3 -4287.616)" fill="#f6e369"/>
          <path id="パス_24" data-name="パス 24" d="M1851.78,5372.922s1.236-6.6,2.322-7.418.152,3.584,2.023,4.149,4.788-2.531,5.459-1.891-2.565,2.709-4.517,5.16a50.906,50.906,0,0,0-3.288,4.645" transform="translate(-29 -4315)" fill="#ff945d"/>
        </g>
        <g id="グループ_222" data-name="グループ 222" transform="translate(-973.758 3600.803) rotate(-90)">
          <path id="パス_23-2" data-name="パス 23" d="M1784.674,5377.291c-.44,5.052,5.129,9.621,11.237,4.947s15.333-9.271,19.2-14.339c2.4-3.137,2.4-6.256,4.193-10.863s3.3-6.508,2.991-7.563c-.808-2.771,1.252-3.916-1.171-3.916s-.952.476-9.871,6.326c-2.756,1.808-10.71,7.8-13.584,10.146C1791.7,5366.9,1785.114,5372.238,1784.674,5377.291Z" transform="translate(342 -4288.072)" fill="#f6e369"/>
          <path id="パス_24-2" data-name="パス 24" d="M1851.78,5372.922s1.236-6.6,2.322-7.418.152,3.584,2.023,4.149,4.788-2.531,5.459-1.891-2.565,2.709-4.517,5.16a50.906,50.906,0,0,0-3.288,4.645" transform="translate(310.626 -4315)" fill="#ff945d"/>
        </g>
        <g id="グループ_233" data-name="グループ 233" transform="translate(-875.017 1063.305) rotate(-41)">
          <path id="パス_35" data-name="パス 35" d="M1128.273,5799.325v22.88s2.247,8.4,15.735,8.4,16.742-8.4,16.742-8.4v-22.88s-2.162,8.133-16.1,8.133S1128.273,5799.325,1128.273,5799.325Z" transform="translate(-29 -4325.63)" fill="#231816"/>
          <path id="パス_36" data-name="パス 36" d="M1115.676,1463.176c-14.505,0-16.076,8.079-16.076,8.729s1.045,9.326,16.076,9.326,15.8-8.187,15.8-9.326S1130.182,1463.176,1115.676,1463.176Z" transform="translate(-0.164)" fill="#7c0000" stroke="#bf0006" stroke-width="3"/>
          <path id="パス_37" data-name="パス 37" d="M1106.032,1486.649s2.868-3.741,12.9-3.741,12.525,3.741,12.525,3.741-2.92,3.8-12.525,3.8S1106.032,1486.649,1106.032,1486.649Z" transform="translate(-3.397 -9.918)" fill="#402f15"/>
        </g>
        <g id="グループ_234" data-name="グループ 234" transform="matrix(0.866, 0.5, -0.5, 0.866, -116.024, -47.126)">
          <path id="パス_35-2" data-name="パス 35" d="M1128.273,5799.325v22.88s2.247,8.4,15.735,8.4,16.742-8.4,16.742-8.4v-22.88s-2.162,8.133-16.1,8.133S1128.273,5799.325,1128.273,5799.325Z" transform="translate(-29 -4325.63)" fill="#231816"/>
          <path id="パス_36-2" data-name="パス 36" d="M1115.676,1463.176c-14.505,0-16.076,8.079-16.076,8.729s1.045,9.326,16.076,9.326,15.8-8.187,15.8-9.326S1130.182,1463.176,1115.676,1463.176Z" transform="translate(-0.164)" fill="#7c0000" stroke="#bf0006" stroke-width="3"/>
          <path id="パス_37-2" data-name="パス 37" d="M1106.032,1486.649s2.868-3.741,12.9-3.741,12.525,3.741,12.525,3.741-2.92,3.8-12.525,3.8S1106.032,1486.649,1106.032,1486.649Z" transform="translate(-3.397 -9.918)" fill="#402f15"/>
        </g>
      </g>
    </g>
  </g>
</svg>
