<svg xmlns="http://www.w3.org/2000/svg" xmlns:xlink="http://www.w3.org/1999/xlink" width="892" height="410" viewBox="0 0 892 410">
  <defs>
    <clipPath id="clip-うどん枠">
      <rect width="892" height="410"/>
    </clipPath>
  </defs>
  <rect x="30" y="30" width="850" height="370" fill="#fffdd6" />
  <g id="うどん枠" clip-path="url(#clip-うどん枠)">
    <g id="グループ_219" data-name="グループ 219" transform="translate(-948.123 -1038.124)">
      <g id="グループ_215" data-name="グループ 215" transform="translate(2816.031 -542.076) rotate(90)">
        <path id="パス_20" data-name="パス 20" d="M1625,5304.182v866.849h8.622l1.437-866.849Z" transform="translate(-29 -4315)" fill="#eeead9" stroke="#d6dbdf" stroke-width="1"/>
        <path id="パス_21" data-name="パス 21" d="M1635.059,5304.182l-1.437,866.849h9.1l2.156-866.849Z" transform="translate(-29 -4315)" fill="#eeead9" stroke="#d6dbdf" stroke-width="1"/>
        <path id="パス_22" data-name="パス 22" d="M1644.878,5304.182l-1.916,866.849H1654.7V5304.182Z" transform="translate(-29 -4315)" fill="#eeead9" stroke="#d6dbdf" stroke-width="1"/>
      </g>
      <g id="グループ_216" data-name="グループ 216" transform="translate(-29.182 3031.979) rotate(-90)">
        <path id="パス_20-2" data-name="パス 20" d="M1625,5304.182V6171.03h8.622l1.437-866.848Z" transform="translate(-29 -4315)" fill="#eeead9" stroke="#d6dbdf" stroke-width="1"/>
        <path id="パス_21-2" data-name="パス 21" d="M1635.059,5304.182l-1.437,866.848h9.1l2.156-866.848Z" transform="translate(-29 -4315)" fill="#eeead9" stroke="#d6dbdf" stroke-width="1"/>
        <path id="パス_22-2" data-name="パス 22" d="M1644.878,5304.182l-1.916,866.848H1654.7V5304.182Z" transform="translate(-29 -4315)" fill="#eeead9" stroke="#d6dbdf" stroke-width="1"/>
      </g>
      <g id="グループ_217" data-name="グループ 217" transform="translate(201.15 70.623)">
        <path id="パス_20-3" data-name="パス 20" d="M1625,5304.182v376.174h8.622l1.437-376.174Z" transform="translate(-29 -4315)" fill="#eeead9" stroke="#d6dbdf" stroke-width="1"/>
        <path id="パス_21-3" data-name="パス 21" d="M1635.059,5304.182l-1.437,376.174h9.1l2.156-376.174Z" transform="translate(-29 -4315)" fill="#eeead9" stroke="#d6dbdf" stroke-width="1"/>
        <path id="パス_22-3" data-name="パス 22" d="M1644.878,5304.182l-1.916,376.174H1654.7V5304.182Z" transform="translate(-29 -4315)" fill="#eeead9" stroke="#d6dbdf" stroke-width="1"/>
      </g>
      <g id="グループ_218" data-name="グループ 218" transform="translate(-636 68.374)">
        <path id="パス_20-4" data-name="パス 20" d="M1625,5304.182v376.174h8.622l1.437-376.174Z" transform="translate(-29 -4315)" fill="#eeead9" stroke="#d6dbdf" stroke-width="1"/>
        <path id="パス_21-4" data-name="パス 21" d="M1635.059,5304.182l-1.437,376.174h9.1l2.156-376.174Z" transform="translate(-29 -4315)" fill="#eeead9" stroke="#d6dbdf" stroke-width="1"/>
        <path id="パス_22-4" data-name="パス 22" d="M1644.878,5304.182l-1.916,376.174H1654.7V5304.182Z" transform="translate(-29 -4315)" fill="#eeead9" stroke="#d6dbdf" stroke-width="1"/>
      </g>
      <g id="グループ_228" data-name="グループ 228">
        <g id="グループ_223" data-name="グループ 223" transform="matrix(0.799, 0.602, -0.602, 0.799, 1006.205, -865.775)">
          <path id="パス_26" data-name="パス 26" d="M1868.738,5397s1.327-26.918-29.811-27.085S1806.979,5397,1806.979,5397" transform="translate(-29.156 -4315)" fill="#ff9fdc"/>
          <path id="パス_25" data-name="パス 25" d="M1816.461,5400.01h49.467s1.543-20.832-24.367-20.832S1816.461,5400.01,1816.461,5400.01Z" transform="translate(-32.234 -4318.007)" fill="#fff"/>
          <path id="パス_27" data-name="パス 27" d="M1889.745,5410.028h6.208" transform="translate(-56.032 -4328.025)" fill="none"/>
          <path id="パス_28" data-name="パス 28" d="M1816.8,5410.028h-10.261" transform="translate(-29.043 -4328.025)" fill="none"/>
        </g>
        <g id="グループ_224" data-name="グループ 224" transform="matrix(-0.588, -0.809, 0.809, -0.588, 1176.155, 3506.901)">
          <path id="パス_26-2" data-name="パス 26" d="M1868.738,5397s1.327-26.918-29.811-27.085S1806.979,5397,1806.979,5397" transform="translate(-29.156 -4315)" fill="#ff9fdc"/>
          <path id="パス_25-2" data-name="パス 25" d="M1816.461,5400.01h49.467s1.543-20.832-24.367-20.832S1816.461,5400.01,1816.461,5400.01Z" transform="translate(-32.234 -4318.007)" fill="#fff"/>
          <path id="パス_27-2" data-name="パス 27" d="M1889.745,5410.028h6.208" transform="translate(-56.032 -4328.025)" fill="none"/>
          <path id="パス_28-2" data-name="パス 28" d="M1816.8,5410.028h-10.261" transform="translate(-29.043 -4328.025)" fill="none"/>
        </g>
        <g id="グループ_226" data-name="グループ 226">
          <rect id="長方形_86" data-name="長方形 86" width="53.247" height="38.619" rx="10" transform="matrix(0.848, -0.53, 0.53, 0.848, 948.953, 1066.34)" fill="#efa65e"/>
          <g id="グループ_225" data-name="グループ 225">
            <path id="パス_29" data-name="パス 29" d="M991.52,5387.745a8.258,8.258,0,0,1,2.817-3.811,12.077,12.077,0,0,1,5.137-1.491" transform="translate(-29 -4315)" fill="none" stroke="#000" stroke-width="1"/>
            <path id="パス_30" data-name="パス 30" d="M991.52,5387.745a8.258,8.258,0,0,1,2.817-3.811,12.077,12.077,0,0,1,5.137-1.491" transform="translate(-21.047 -4306)" fill="none" stroke="#000" stroke-width="1"/>
            <path id="パス_31" data-name="パス 31" d="M991.52,5387.745a8.258,8.258,0,0,1,2.817-3.811,12.077,12.077,0,0,1,5.137-1.491" transform="translate(-4.047 -4309.698)" fill="none" stroke="#000" stroke-width="1"/>
            <path id="パス_32" data-name="パス 32" d="M991.52,5387.745a8.258,8.258,0,0,1,2.817-3.811,12.077,12.077,0,0,1,5.137-1.491" transform="translate(-8.023 -4317.651)" fill="none" stroke="#000" stroke-width="1"/>
            <path id="パス_33" data-name="パス 33" d="M991.52,5387.745a8.258,8.258,0,0,1,2.817-3.811,12.077,12.077,0,0,1,5.137-1.491" transform="translate(-21.047 -4325.698)" fill="none" stroke="#000" stroke-width="1"/>
            <path id="パス_34" data-name="パス 34" d="M991.52,5387.745a8.258,8.258,0,0,1,2.817-3.811,12.077,12.077,0,0,1,5.137-1.491" transform="translate(-2.047 -4328.519)" fill="none" stroke="#000" stroke-width="1"/>
          </g>
        </g>
        <g id="グループ_227" data-name="グループ 227" transform="translate(821.427 348.876)">
          <rect id="長方形_86-2" data-name="長方形 86" width="53.247" height="38.619" rx="10" transform="matrix(0.848, -0.53, 0.53, 0.848, 948.953, 1066.34)" fill="#efa65e"/>
          <g id="グループ_225-2" data-name="グループ 225">
            <path id="パス_29-2" data-name="パス 29" d="M991.52,5387.745a8.258,8.258,0,0,1,2.817-3.811,12.077,12.077,0,0,1,5.137-1.491" transform="translate(-29 -4315)" fill="none" stroke="#000" stroke-width="1"/>
            <path id="パス_30-2" data-name="パス 30" d="M991.52,5387.745a8.258,8.258,0,0,1,2.817-3.811,12.077,12.077,0,0,1,5.137-1.491" transform="translate(-21.047 -4306)" fill="none" stroke="#000" stroke-width="1"/>
            <path id="パス_31-2" data-name="パス 31" d="M991.52,5387.745a8.258,8.258,0,0,1,2.817-3.811,12.077,12.077,0,0,1,5.137-1.491" transform="translate(-4.047 -4309.698)" fill="none" stroke="#000" stroke-width="1"/>
            <path id="パス_32-2" data-name="パス 32" d="M991.52,5387.745a8.258,8.258,0,0,1,2.817-3.811,12.077,12.077,0,0,1,5.137-1.491" transform="translate(-8.023 -4317.651)" fill="none" stroke="#000" stroke-width="1"/>
            <path id="パス_33-2" data-name="パス 33" d="M991.52,5387.745a8.258,8.258,0,0,1,2.817-3.811,12.077,12.077,0,0,1,5.137-1.491" transform="translate(-21.047 -4325.698)" fill="none" stroke="#000" stroke-width="1"/>
            <path id="パス_34-2" data-name="パス 34" d="M991.52,5387.745a8.258,8.258,0,0,1,2.817-3.811,12.077,12.077,0,0,1,5.137-1.491" transform="translate(-2.047 -4328.519)" fill="none" stroke="#000" stroke-width="1"/>
          </g>
        </g>
      </g>
    </g>
  </g>
</svg>
