<svg xmlns="http://www.w3.org/2000/svg" xmlns:xlink="http://www.w3.org/1999/xlink" width="894" height="420" viewBox="0 0 894 420">
  <defs>
    <clipPath id="clip-やきそば枠">
      <rect width="894" height="420"/>
    </clipPath>
  </defs>
  <rect x="30" y="30" width="850" height="350" fill="#ffffff" />
  <g id="やきそば枠" clip-path="url(#clip-やきそば枠)">
    <g id="グループ_247" data-name="グループ 247" transform="translate(-943.815 -1423.562)">
      <g id="グループ_237" data-name="グループ 237" transform="translate(2816.031 -162.438) rotate(90)">
        <path id="パス_20" data-name="パス 20" d="M1625,5304.182v866.849h8.622l1.437-866.849Z" transform="translate(-29 -4315)" fill="#a7804e" stroke="#ce844c" stroke-width="1"/>
        <path id="パス_21" data-name="パス 21" d="M1635.059,5304.182l-1.437,866.849h9.1l2.156-866.849Z" transform="translate(-29 -4315)" fill="#a7804e" stroke="#ce844c" stroke-width="1"/>
        <path id="パス_22" data-name="パス 22" d="M1644.878,5304.182l-1.916,866.849H1654.7V5304.182Z" transform="translate(-29 -4315)" fill="#a7804e" stroke="#ce844c" stroke-width="1"/>
      </g>
      <g id="グループ_238" data-name="グループ 238" transform="translate(-29.182 3411.617) rotate(-90)">
        <path id="パス_20-2" data-name="パス 20" d="M1625,5304.182V6171.03h8.622l1.437-866.848Z" transform="translate(-29 -4315)" fill="#a7804e" stroke="#ce844c" stroke-width="1"/>
        <path id="パス_21-2" data-name="パス 21" d="M1635.059,5304.182l-1.437,866.848h9.1l2.156-866.848Z" transform="translate(-29 -4315)" fill="#a7804e" stroke="#ce844c" stroke-width="1"/>
        <path id="パス_22-2" data-name="パス 22" d="M1644.878,5304.182l-1.916,866.848H1654.7V5304.182Z" transform="translate(-29 -4315)" fill="#a7804e" stroke="#ce844c" stroke-width="1"/>
      </g>
      <g id="グループ_239" data-name="グループ 239" transform="translate(201.15 450.261)">
        <path id="パス_20-3" data-name="パス 20" d="M1625,5304.182v376.174h8.622l1.437-376.174Z" transform="translate(-29 -4315)" fill="#a7804e" stroke="#ce844c" stroke-width="1"/>
        <path id="パス_21-3" data-name="パス 21" d="M1635.059,5304.182l-1.437,376.174h9.1l2.156-376.174Z" transform="translate(-29 -4315)" fill="#a7804e" stroke="#ce844c" stroke-width="1"/>
        <path id="パス_22-3" data-name="パス 22" d="M1644.878,5304.182l-1.916,376.174H1654.7V5304.182Z" transform="translate(-29 -4315)" fill="#a7804e" stroke="#ce844c" stroke-width="1"/>
      </g>
      <g id="グループ_240" data-name="グループ 240" transform="translate(-636 448.011)">
        <path id="パス_20-4" data-name="パス 20" d="M1625,5304.182v376.174h8.622l1.437-376.174Z" transform="translate(-29 -4315)" fill="#a7804e" stroke="#ce844c" stroke-width="1"/>
        <path id="パス_21-4" data-name="パス 21" d="M1635.059,5304.182l-1.437,376.174h9.1l2.156-376.174Z" transform="translate(-29 -4315)" fill="#a7804e" stroke="#ce844c" stroke-width="1"/>
        <path id="パス_22-4" data-name="パス 22" d="M1644.878,5304.182l-1.916,376.174H1654.7V5304.182Z" transform="translate(-29 -4315)" fill="#a7804e" stroke="#ce844c" stroke-width="1"/>
      </g>
      <g id="グループ_246" data-name="グループ 246">
        <g id="グループ_241" data-name="グループ 241" transform="translate(-3.208 -3.007)">
          <g id="長方形_87" data-name="長方形 87" transform="translate(967.925 1439.146) rotate(29)" fill="#f95ba0" stroke="#fc20d7" stroke-width="1">
            <rect width="32.993" height="6.599" stroke="none"/>
            <rect x="0.5" y="0.5" width="31.993" height="5.599" fill="none"/>
          </g>
          <g id="長方形_88" data-name="長方形 88" transform="matrix(-0.602, 0.799, -0.799, -0.602, 992.108, 1440.54)" fill="#f95ba0" stroke="#fc20d7" stroke-width="1">
            <rect width="32.993" height="6.599" stroke="none"/>
            <rect x="0.5" y="0.5" width="31.993" height="5.599" fill="none"/>
          </g>
          <g id="長方形_89" data-name="長方形 89" transform="translate(964.625 1447.945) rotate(29)" fill="#f95ba0" stroke="#fc20d7" stroke-width="1">
            <rect width="32.993" height="6.599" stroke="none"/>
            <rect x="0.5" y="0.5" width="31.993" height="5.599" fill="none"/>
          </g>
        </g>
        <g id="グループ_242" data-name="グループ 242" transform="matrix(0.819, 0.574, -0.574, 0.819, 1843.026, 43.517)">
          <g id="長方形_87-2" data-name="長方形 87" transform="translate(968.48 1439.367) rotate(29)" fill="#f95ba0" stroke="#fc20d7" stroke-width="1">
            <rect width="35.813" height="7.163" stroke="none"/>
            <rect x="0.5" y="0.5" width="34.813" height="6.163" fill="none"/>
          </g>
          <g id="長方形_88-2" data-name="長方形 88" transform="matrix(-0.602, 0.799, -0.799, -0.602, 994.73, 1440.879)" fill="#f95ba0" stroke="#fc20d7" stroke-width="1">
            <rect width="35.813" height="7.163" stroke="none"/>
            <rect x="0.5" y="0.5" width="34.813" height="6.163" fill="none"/>
          </g>
          <g id="長方形_89-2" data-name="長方形 89" transform="translate(964.899 1448.917) rotate(29)" fill="#f95ba0" stroke="#fc20d7" stroke-width="1">
            <rect width="35.813" height="7.163" stroke="none"/>
            <rect x="0.5" y="0.5" width="34.813" height="6.163" fill="none"/>
          </g>
        </g>
        <g id="グループ_243" data-name="グループ 243">
          <path id="パス_38" data-name="パス 38" d="M1822.583,5770.237c-3.173-9.28-6.407-4.371-2.635-12.933s24.01-7.724,30.416-5.269,8.981,4.97,10.3,8.861-2.036,9.52-5.269,22.752-2.934,3.952-12.454,5.748-2.335-8.2-8.622-13.891S1825.757,5779.518,1822.583,5770.237Z" transform="translate(-29 -4315)" fill="#6cfe62" stroke="#67a551" stroke-width="1"/>
          <path id="パス_39" data-name="パス 39" d="M1822.583,5770.237c-3.173-9.28-6.407-4.371-2.635-12.933s24.01-7.724,30.416-5.269,8.981,4.97,10.3,8.861-2.036,9.52-5.269,22.752-2.934,3.952-12.454,5.748-2.335-8.2-8.622-13.891S1825.757,5779.518,1822.583,5770.237Z" transform="translate(7157.497 4232.652) rotate(135)" fill="#6cfe62" stroke="#67a551" stroke-width="1"/>
          <path id="パス_40" data-name="パス 40" d="M1819.82,5792.547c-5.573,12.343,1.244,19.713,8.106,18.607s23.858,26.805,21.186,14.922,5.987.092,11.791-2.026.092-9.58,4.974-12.9-3.593-12.989-10.685-22.108-9.488-15.383-17.686-14.37S1825.393,5780.2,1819.82,5792.547Z" transform="translate(-41.521 -4323)" fill="#6cfe62" stroke="#67a551" stroke-width="1"/>
        </g>
        <g id="グループ_244" data-name="グループ 244" transform="translate(-803 336.973)">
          <path id="パス_38-2" data-name="パス 38" d="M1822.583,5770.237c-3.173-9.28-6.407-4.371-2.635-12.933s24.01-7.724,30.416-5.269,8.981,4.97,10.3,8.861-2.036,9.52-5.269,22.752-2.934,3.952-12.454,5.748-2.335-8.2-8.622-13.891S1825.757,5779.518,1822.583,5770.237Z" transform="translate(-29 -4315)" fill="#6cfe62" stroke="#67a551" stroke-width="1"/>
          <path id="パス_39-2" data-name="パス 39" d="M1822.583,5770.237c-3.173-9.28-6.407-4.371-2.635-12.933s24.01-7.724,30.416-5.269,8.981,4.97,10.3,8.861-2.036,9.52-5.269,22.752-2.934,3.952-12.454,5.748-2.335-8.2-8.622-13.891S1825.757,5779.518,1822.583,5770.237Z" transform="translate(7157.497 4232.652) rotate(135)" fill="#6cfe62" stroke="#67a551" stroke-width="1"/>
          <path id="パス_40-2" data-name="パス 40" d="M1819.82,5792.547c-5.573,12.343,1.244,19.713,8.106,18.607s23.858,26.805,21.186,14.922,5.987.092,11.791-2.026.092-9.58,4.974-12.9-3.593-12.989-10.685-22.108-9.488-15.383-17.686-14.37S1825.393,5780.2,1819.82,5792.547Z" transform="translate(-41.521 -4323)" fill="#6cfe62" stroke="#67a551" stroke-width="1"/>
        </g>
        <g id="グループ_245" data-name="グループ 245">
          <g id="長方形_90" data-name="長方形 90" transform="translate(1019 1447)" fill="#007104" stroke="#88b282" stroke-width="1">
            <rect width="1" height="1" stroke="none"/>
            <rect x="0.5" y="0.5" fill="none"/>
          </g>
          <g id="長方形_91" data-name="長方形 91" transform="translate(1059 1450)" fill="#007104" stroke="#88b282" stroke-width="1">
            <rect width="1" height="1" stroke="none"/>
            <rect x="0.5" y="0.5" fill="none"/>
          </g>
          <g id="長方形_92" data-name="長方形 92" transform="translate(1121 1439)" fill="#007104" stroke="#88b282" stroke-width="1">
            <rect width="8" height="8" stroke="none"/>
            <rect x="0.5" y="0.5" width="7" height="7" fill="none"/>
          </g>
          <g id="長方形_93" data-name="長方形 93" transform="translate(1177 1450)" fill="#007104" stroke="#88b282" stroke-width="1">
            <rect width="1" height="1" stroke="none"/>
            <rect x="0.5" y="0.5" fill="none"/>
          </g>
          <g id="長方形_94" data-name="長方形 94" transform="translate(1237 1455)" fill="#007104" stroke="#88b282" stroke-width="1">
            <rect width="4" height="4" stroke="none"/>
            <rect x="0.5" y="0.5" width="3" height="3" fill="none"/>
          </g>
          <g id="長方形_95" data-name="長方形 95" transform="translate(1336 1443)" fill="#007104" stroke="#88b282" stroke-width="1">
            <rect width="7" height="7" stroke="none"/>
            <rect x="0.5" y="0.5" width="6" height="6" fill="none"/>
          </g>
          <g id="長方形_96" data-name="長方形 96" transform="translate(1438 1447)" fill="#007104" stroke="#88b282" stroke-width="1">
            <rect width="4" height="4" stroke="none"/>
            <rect x="0.5" y="0.5" width="3" height="3" fill="none"/>
          </g>
          <g id="長方形_97" data-name="長方形 97" transform="translate(1492 1447)" fill="#007104" stroke="#88b282" stroke-width="1">
            <rect width="4" height="4" stroke="none"/>
            <rect x="0.5" y="0.5" width="3" height="3" fill="none"/>
          </g>
          <g id="長方形_98" data-name="長方形 98" transform="translate(1564 1447)" fill="#007104" stroke="#88b282" stroke-width="1">
            <rect width="16" height="16" stroke="none"/>
            <rect x="0.5" y="0.5" width="15" height="15" fill="none"/>
          </g>
          <g id="長方形_99" data-name="長方形 99" transform="translate(1655 1447)" fill="#007104" stroke="#88b282" stroke-width="1">
            <rect width="8" height="8" stroke="none"/>
            <rect x="0.5" y="0.5" width="7" height="7" fill="none"/>
          </g>
          <g id="長方形_100" data-name="長方形 100" transform="translate(1718 1447)" fill="#007104" stroke="#88b282" stroke-width="1">
            <rect width="4" height="4" stroke="none"/>
            <rect x="0.5" y="0.5" width="3" height="3" fill="none"/>
          </g>
          <g id="長方形_101" data-name="長方形 101" transform="translate(1812 1528)" fill="#007104" stroke="#88b282" stroke-width="1">
            <rect width="9" height="9" stroke="none"/>
            <rect x="0.5" y="0.5" width="8" height="8" fill="none"/>
          </g>
          <g id="長方形_102" data-name="長方形 102" transform="translate(1821 1577)" fill="#007104" stroke="#88b282" stroke-width="1">
            <rect width="11" height="11" stroke="none"/>
            <rect x="0.5" y="0.5" width="10" height="10" fill="none"/>
          </g>
          <g id="長方形_103" data-name="長方形 103" transform="translate(1817 1625)" fill="#007104" stroke="#88b282" stroke-width="1">
            <rect width="15" height="15" stroke="none"/>
            <rect x="0.5" y="0.5" width="14" height="14" fill="none"/>
          </g>
          <g id="長方形_104" data-name="長方形 104" transform="translate(1812 1675)" fill="#007104" stroke="#88b282" stroke-width="1">
            <rect width="9" height="9" stroke="none"/>
            <rect x="0.5" y="0.5" width="8" height="8" fill="none"/>
          </g>
          <g id="長方形_105" data-name="長方形 105" transform="translate(1806 1726)" fill="#007104" stroke="#88b282" stroke-width="1">
            <rect width="11" height="11" stroke="none"/>
            <rect x="0.5" y="0.5" width="10" height="10" fill="none"/>
          </g>
          <g id="長方形_106" data-name="長方形 106" transform="translate(1734 1802)" fill="#007104" stroke="#88b282" stroke-width="1">
            <rect width="13" height="13" stroke="none"/>
            <rect x="0.5" y="0.5" width="12" height="12" fill="none"/>
          </g>
          <g id="長方形_107" data-name="長方形 107" transform="translate(1603 1806)" fill="#007104" stroke="#88b282" stroke-width="1">
            <rect width="9" height="9" stroke="none"/>
            <rect x="0.5" y="0.5" width="8" height="8" fill="none"/>
          </g>
          <g id="長方形_108" data-name="長方形 108" transform="translate(1460 1792)" fill="#007104" stroke="#88b282" stroke-width="1">
            <rect width="17" height="17" stroke="none"/>
            <rect x="0.5" y="0.5" width="16" height="16" fill="none"/>
          </g>
          <g id="長方形_109" data-name="長方形 109" transform="translate(1372 1786)" fill="#007104" stroke="#88b282" stroke-width="1">
            <rect width="16" height="16" stroke="none"/>
            <rect x="0.5" y="0.5" width="15" height="15" fill="none"/>
          </g>
          <g id="長方形_110" data-name="長方形 110" transform="translate(1287 1802)" fill="#007104" stroke="#88b282" stroke-width="1">
            <rect width="7" height="7" stroke="none"/>
            <rect x="0.5" y="0.5" width="6" height="6" fill="none"/>
          </g>
          <g id="長方形_111" data-name="長方形 111" transform="translate(1172 1802)" fill="#007104" stroke="#88b282" stroke-width="1">
            <rect width="14" height="14" stroke="none"/>
            <rect x="0.5" y="0.5" width="13" height="13" fill="none"/>
          </g>
          <g id="長方形_112" data-name="長方形 112" transform="translate(1099 1797)" fill="#007104" stroke="#88b282" stroke-width="1">
            <rect width="22" height="22" stroke="none"/>
            <rect x="0.5" y="0.5" width="21" height="21" fill="none"/>
          </g>
          <g id="長方形_113" data-name="長方形 113" transform="translate(1038 1794)" fill="#007104" stroke="#88b282" stroke-width="1">
            <rect width="12" height="12" stroke="none"/>
            <rect x="0.5" y="0.5" width="11" height="11" fill="none"/>
          </g>
          <g id="長方形_114" data-name="長方形 114" transform="translate(976 1718)" fill="#007104" stroke="#88b282" stroke-width="1">
            <rect width="8" height="8" stroke="none"/>
            <rect x="0.5" y="0.5" width="7" height="7" fill="none"/>
          </g>
          <g id="長方形_115" data-name="長方形 115" transform="translate(971 1684)" fill="#007104" stroke="#88b282" stroke-width="1">
            <rect width="9" height="9" stroke="none"/>
            <rect x="0.5" y="0.5" width="8" height="8" fill="none"/>
          </g>
          <g id="長方形_116" data-name="長方形 116" transform="translate(975 1607)" fill="#007104" stroke="#88b282" stroke-width="1">
            <rect width="15" height="15" stroke="none"/>
            <rect x="0.5" y="0.5" width="14" height="14" fill="none"/>
          </g>
          <g id="長方形_117" data-name="長方形 117" transform="translate(960 1559)" fill="#007104" stroke="#88b282" stroke-width="1">
            <rect width="11" height="11" stroke="none"/>
            <rect x="0.5" y="0.5" width="10" height="10" fill="none"/>
          </g>
          <g id="長方形_118" data-name="長方形 118" transform="translate(966 1528)" fill="#007104" stroke="#88b282" stroke-width="1">
            <rect width="5" height="5" stroke="none"/>
            <rect x="0.5" y="0.5" width="4" height="4" fill="none"/>
          </g>
          <g id="長方形_119" data-name="長方形 119" transform="translate(983 1486)" fill="#007104" stroke="#88b282" stroke-width="1">
            <rect width="7" height="7" stroke="none"/>
            <rect x="0.5" y="0.5" width="6" height="6" fill="none"/>
          </g>
        </g>
      </g>
    </g>
  </g>
</svg>
